<ttFont>
          <CharString index="0">
            hlineto
            -106 callgsubr
            return
          </CharString>
          <CharString index="1">
            vlineto
            -53 24 -24 53 vhcurveto
            305 59 -183 -94 callgsubr
            -208 166 208 -102 callgsubr
            return
          </CharString>
          <CharString index="2">
            137 callgsubr
            -29 vhcurveto
            -400 301 callgsubr
            222 vlineto
            -58 callsubr
            144 221 callsubr
            return
          </CharString>
          <CharString index="3">
            -331 -106 callsubr
            return
          </CharString>
          <CharString index="4">
            vlineto
            -101 callsubr
            return
          </CharString>
          <CharString index="5">
            hlineto
            -103 callgsubr
            return
          </CharString>
          <CharString index="6">
            25 -92 callgsubr
            return
          </CharString>
          <CharString index="7">
            227 callgsubr
            -133 -122 -80 callsubr
            vlineto
            endchar
          </CharString>
          <CharString index="8">
            -102 callsubr
            303 -103 callsubr
            return
          </CharString>
          <CharString index="9">
            -59 469 hlineto
            -100 callgsubr
            return
          </CharString>
          <CharString index="10">
            -38 callgsubr
            -151 -107 callsubr
            135 59 return
          </CharString>
          <CharString index="11">
            -253 -93 callgsubr
            return
          </CharString>
          <CharString index="12">
            -94 callsubr
            166 563 return
          </CharString>
          <CharString index="13">
            -79 callsubr
            43 callsubr
            return
          </CharString>
          <CharString index="14">
            -89 callsubr
            -87 return
          </CharString>
          <CharString index="15">
            -253 -105 callgsubr
            return
          </CharString>
          <CharString index="16">
            7 26 vhcurveto
            return
          </CharString>
          <CharString index="17">
            -99 callsubr
            152 hlineto
            26 return
          </CharString>
          <CharString index="18">
            hlineto
            -89 callgsubr
            return
          </CharString>
          <CharString index="19">
            -105 callgsubr
            218 59 -96 -99 callsubr
            return
          </CharString>
          <CharString index="20">
            vlineto
            17 -4 10 -9 6 vhcurveto
            return
          </CharString>
          <CharString index="21">
            271 callsubr
            120 23 callsubr
            return
          </CharString>
          <CharString index="22">
            -81 callsubr
            -267 return
          </CharString>
          <CharString index="23">
            hlineto
            -81 callgsubr
            return
          </CharString>
          <CharString index="24">
            -7 -26 vhcurveto
            return
          </CharString>
          <CharString index="25">
            -26 -8 -8 -9 callsubr
            return
          </CharString>
          <CharString index="26">
            -55 callsubr
            -131 -88 callgsubr
            return
          </CharString>
          <CharString index="27">
            -59 -76 callsubr
            return
          </CharString>
          <CharString index="28">
            -85 callsubr
            -1 callgsubr
            return
          </CharString>
          <CharString index="29">
            167 -71 callgsubr
          </CharString>
          <CharString index="30">
            38 2 369 callgsubr
            124 -51 callgsubr
            -412 222 callsubr
            167 84 -26 callsubr
            168 hlineto
            -55 callsubr
            -119 vlineto
            -38 callgsubr
            -139 -59 139 hlineto
            26 8 -8 -26 hvcurveto
            -116 107 callsubr
            -168 17 callgsubr
            84 -167 -98 -105 callgsubr
            412 -86 callgsubr
            142 170 -297 167 563 return
          </CharString>
          <CharString index="31">
            122 -62 callsubr
            return
          </CharString>
          <CharString index="32">
            -6 -83 callsubr
            return
          </CharString>
          <CharString index="33">
            vlineto
            -62 callgsubr
            return
          </CharString>
          <CharString index="34">
            -85 callgsubr
            152 -53 callgsubr
            -225 -88 callgsubr
            -136 -59 262 callsubr
            -51 callgsubr
            -276 -37 callsubr
          </CharString>
          <CharString index="35">
            285 hlineto
            26 7 -7 -26 hvcurveto
            -128 vlineto
            -26 -7 81 callsubr
            80 -166 -94 -105 callgsubr
            404 86 callsubr
            157 vlineto
            53 -25 7 callsubr
          </CharString>
          <CharString index="36">
            509 273 callgsubr
            hlineto
            -53 -24 -24 -53 hvcurveto
            -194 -36 callsubr
            return
          </CharString>
          <CharString index="37">
            -266 -226 4 hlineto
            -77 callsubr
            return
          </CharString>
          <CharString index="38">
            -14 -11 -3 -6 -7 hvcurveto
            87 return
          </CharString>
          <CharString index="39">
            -103 callgsubr
            166 21 callgsubr
            -198 hlineto
            -66 callgsubr
            return
          </CharString>
          <CharString index="40">
            -26 callgsubr
            -8 callsubr
            return
          </CharString>
          <CharString index="41">
            vlineto
            -25 31 callgsubr
            return
          </CharString>
          <CharString index="42">
            10 6 5 12 21 vvcurveto
            145 324 callsubr
            -367 hlineto
            -53 -24 -23 -53 hvcurveto
            -145 vlineto
            -21 5 -12 10 -6 vhcurveto
            -1 hlineto
            -54 -21 -29 -50 hvcurveto
            -127 -15 callgsubr
            306 141 callgsubr
            225 -167 -51 263 callgsubr
            -181 hlineto
            342 callsubr
            return
          </CharString>
          <CharString index="43">
            -316 hlineto
            -59 callsubr
            return
          </CharString>
          <CharString index="44">
            37 callsubr
            -154 -68 callgsubr
            100 -161 -111 127 callgsubr
            185 -57 callgsubr
            -269 -68 callgsubr
            158 -43 callsubr
            153 -60 callsubr
            -100 161 111 -57 callgsubr
            -380 126 callsubr
            270 -60 callsubr
            return
          </CharString>
          <CharString index="45">
            -563 -23 callgsubr
            return
          </CharString>
          <CharString index="46">
            -106 callsubr
            185 85 callsubr
          </CharString>
          <CharString index="47">
            hlineto
            -31 callgsubr
            return
          </CharString>
          <CharString index="48">
            -47 callgsubr
            -161 -330 -56 callgsubr
            return
          </CharString>
          <CharString index="49">
            53 24 -77 callgsubr
            return
          </CharString>
          <CharString index="50">
            17 callgsubr
            140 vlineto
            25 6 -27 callgsubr
            return
          </CharString>
          <CharString index="51">
            525 -39 callsubr
            return
          </CharString>
          <CharString index="52">
            26 6 -6 -26 hvcurveto
            return
          </CharString>
          <CharString index="53">
            hlineto
            53 26 26 53 hvcurveto
            return
          </CharString>
          <CharString index="54">
            122 vlineto
            endchar
          </CharString>
          <CharString index="55">
            rmoveto
            164 118 -164 hlineto
            return
          </CharString>
          <CharString index="56">
            hlineto
            53 24 -41 callsubr
          </CharString>
          <CharString index="57">
            402 -51 callsubr
          </CharString>
          <CharString index="58">
            392 -22 callgsubr
            return
          </CharString>
          <CharString index="59">
            rmoveto
            119 342 119 -342 rlineto
            63 -182 rmoveto
            159 hlineto
            -239 622 rlineto
            -204 hlineto
            -238 -622 rlineto
            157 hlineto
            43 123 rlineto
            279 hlineto
            endchar
          </CharString>
          <CharString index="60">
            37 callsubr
            -143 29 callgsubr
            212 callsubr
            -280 90 6 callsubr
            355 332 callgsubr
            endchar
          </CharString>
          <CharString index="61">
            -59 497 -78 -313 -23 callsubr
            return
          </CharString>
          <CharString index="62">
            rmoveto
            131 callsubr
            389 -54 callsubr
            -161 11 37 callsubr
            -162 -68 callgsubr
            442 -43 callsubr
            162 -60 callsubr
            return
          </CharString>
          <CharString index="63">
            -26 -35 callgsubr
            return
          </CharString>
          <CharString index="64">
            vlineto
            -24 callsubr
            return
          </CharString>
          <CharString index="65">
            -53 -26 -26 -53 hvcurveto
            return
          </CharString>
          <CharString index="66">
            -77 callgsubr
            271 167 -37 callgsubr
          </CharString>
          <CharString index="67">
            171 -60 callgsubr
            return
          </CharString>
          <CharString index="68">
            hlineto
            16 12 3 9 7 hvcurveto
            return
          </CharString>
          <CharString index="69">
            -7 -25 hvcurveto
            return
          </CharString>
          <CharString index="70">
            hlineto
            -69 callsubr
            vlineto
            endchar
          </CharString>
          <CharString index="71">
            -105 callgsubr
            436 -35 callsubr
            408 return
          </CharString>
          <CharString index="72">
            hlineto
            -29 callgsubr
            return
          </CharString>
          <CharString index="73">
            -66 callgsubr
            -164 hlineto
            -26 -7 -97 callgsubr
            return
          </CharString>
          <CharString index="74">
            -107 callgsubr
            405 -86 callgsubr
            137 -167 -123 vlineto
            -25 -6 19 callgsubr
          </CharString>
          <CharString index="75">
            53 -24 -7 callsubr
            return
          </CharString>
          <CharString index="76">
            vlineto
            -84 callgsubr
            return
          </CharString>
          <CharString index="77">
            301 -24 callgsubr
            563 return
          </CharString>
          <CharString index="78">
            26 7 -38 callsubr
            return
          </CharString>
          <CharString index="79">
            -175 -25 callsubr
            285 hlineto
            return
          </CharString>
          <CharString index="80">
            hlineto
            -64 callgsubr
            return
          </CharString>
          <CharString index="81">
            vlineto
            26 6 39 callsubr
            return
          </CharString>
          <CharString index="82">
            hlineto
            -26 -6 7 25 hvcurveto
            164 -39 callgsubr
            -192 vlineto
            -53 24 -24 53 vhcurveto
            return
          </CharString>
          <CharString index="83">
            26 5 5 26 vhcurveto
            return
          </CharString>
          <CharString index="84">
            hlineto
            79 callsubr
            return
          </CharString>
          <CharString index="85">
            rmoveto
            -25 31 callgsubr
            -168 211 callgsubr
            233 vlineto
            return
          </CharString>
          <CharString index="86">
            398 -50 callgsubr
            return
          </CharString>
          <CharString index="87">
            -15 callgsubr
            496 59 -374 212 callgsubr
            -14 callgsubr
            185 hlineto
            26 7 -8 -24 hvcurveto
            -91 158 100 vlineto
            56 -29 26 -57 vhcurveto
            -290 1 callsubr
            38 -102 callgsubr
            endchar
          </CharString>
          <CharString index="88">
            -331 -105 callgsubr
            440 -35 callsubr
            136 256 callgsubr
            -7 -25 hvcurveto
            -108 vlineto
            -25 -6 -7 -26 vhcurveto
            -208 -99 callsubr
            return
          </CharString>
          <CharString index="89">
            -58 callgsubr
            -18 callgsubr
            return
          </CharString>
          <CharString index="90">
            106 callgsubr
            167 96 callgsubr
            return
          </CharString>
          <CharString index="91">
            rmoveto
            176 151 rlineto
            -155 hlineto
            -97 -93 -97 93 rlineto
            -154 hlineto
            175 -151 rlineto
            return
          </CharString>
          <CharString index="92">
            vlineto
            -104 callgsubr
            return
          </CharString>
          <CharString index="93">
            -90 callgsubr
            236 -426 122 callsubr
          </CharString>
          <CharString index="94">
            rmoveto
            117 -43 callsubr
            154 -60 callsubr
            -117 vlineto
            -291 207 6 callsubr
            return
          </CharString>
          <CharString index="95">
            rmoveto
            140 -57 callgsubr
            -390 -6 callsubr
            390 -54 callsubr
            139 -162 -128 -12 callgsubr
            -162 -68 callgsubr
            442 -43 callsubr
            162 -60 callsubr
            -129 vlineto
            endchar
          </CharString>
          <CharString index="96">
            -1 -6 0 -6 -6 vvcurveto
            92 callsubr
          </CharString>
          <CharString index="97">
            106 callgsubr
            166 86 vlineto
            53 -23 25 -53 vhcurveto
            return
          </CharString>
          <CharString index="98">
            -26 vhcurveto
            -177 -84 callsubr
            161 59 return
          </CharString>
          <CharString index="99">
            402 -50 callgsubr
            return
          </CharString>
          <CharString index="100">
            24 -53 vhcurveto
            return
          </CharString>
          <CharString index="101">
            hlineto
            2 callgsubr
            return
          </CharString>
          <CharString index="102">
            -107 callgsubr
            19 callsubr
          </CharString>
          <CharString index="103">
            219 callgsubr
            142 258 vlineto
            -58 callsubr
            253 506 -343 vlineto
            -28 -10 -9 -27 -35 callgsubr
            153 vlineto
            26 291 callsubr
            -267 -34 callgsubr
            -181 vlineto
            -50 21 -28 46 vhcurveto
            148 hlineto
            -149 -191 rlineto
            169 hlineto
            157 206 rlineto
            -139 123 callgsubr
          </CharString>
          <CharString index="104">
            53 -23 -7 callsubr
            -316 -59 194 -53 callgsubr
            -225 329 callsubr
            100 -167 -114 -105 callgsubr
            414 -35 callsubr
            return
          </CharString>
          <CharString index="105">
            -41 23 callgsubr
            -41 vvcurveto
            return
          </CharString>
          <CharString index="106">
            vlineto
            53 -23 -7 callsubr
            return
          </CharString>
          <CharString index="107">
            48 callgsubr
            14 11 3 6 7 hvcurveto
            -87 166 return
          </CharString>
          <CharString index="108">
            hlineto
            -26 -7 6 26 hvcurveto
            return
          </CharString>
          <CharString index="109">
            rmoveto
            -25 31 callgsubr
            -150 -107 callsubr
            150 -48 callgsubr
            -357 -225 rmoveto
            -25 -7 -7 -26 vhcurveto
            -151 -84 callsubr
            151 -48 callgsubr
            return
          </CharString>
          <CharString index="110">
            rmoveto
            -162 -543 264 callgsubr
            399 176 callgsubr
            -161 84 callsubr
            return
          </CharString>
          <CharString index="111">
            -40 -16 -16 -36 -2 hvcurveto
            -5 hlineto
            37 -3 -18 15 -43 hhcurveto
            -302 -78 callgsubr
            302 hlineto
            43 18 15 37 3 hvcurveto
            5 hlineto
            -36 2 16 -16 40 hhcurveto
            308 15 callgsubr
            -51 callgsubr
            return
          </CharString>
          <CharString index="112">
            6 callgsubr
            135 hlineto
            25 11 -9 -23 hvcurveto
            -303 197 callsubr
            190 -34 rmoveto
            460 -154 -33 -49 callgsubr
            -84 -12 callgsubr
            -301 -59 408 -54 callsubr
            87 vlineto
            endchar
          </CharString>
          <CharString index="113">
            rmoveto
            -64 callgsubr
            return
          </CharString>
          <CharString index="114">
            -7 callsubr
            -285 320 callgsubr
          </CharString>
          <CharString index="115">
            53 23 356 callgsubr
            -23 24 -53 vhcurveto
            return
          </CharString>
          <CharString index="116">
            -59 510 -78 -329 74 callsubr
            272 callgsubr
            301 81 callgsubr
            -213 53 -171 -190 171 78 336 -35 callsubr
            99 187 callgsubr
            return
          </CharString>
          <CharString index="117">
            293 callgsubr
            33 -155 -485 155 364 1 30 vlineto
            23 10 354 callgsubr
            -395 155 182 callsubr
          </CharString>
          <CharString index="118">
            37 12 5 26 vhcurveto
            51 58 -68 hlineto
            -52 -28 -27 -49 hvcurveto
            -13 vlineto
            -43 7 -45 0 vhcurveto
            0 -14 65 -14 49 vhcurveto
            -19 63 rlineto
            -106 hlineto
            33 -72 24 -50 21 -41 27 -48 rlinecurve
            -6 hlineto
            -33 49 -31 44 -50 56 -56 62 rcurveline
            -168 hlineto
            156 -142 return
          </CharString>
          <CharString index="119">
            -38 callgsubr
            -167 -107 callsubr
            return
          </CharString>
          <CharString index="120">
            -53 25 -98 callgsubr
            return
          </CharString>
          <CharString index="121">
            -253 5 callgsubr
          </CharString>
          <CharString index="122">
            -59 1189 hlineto
            24 callgsubr
            -832 -70 callgsubr
            186 54 callgsubr
            return
          </CharString>
          <CharString index="123">
            -153 vlineto
            -25 -7 246 callgsubr
            return
          </CharString>
          <CharString index="124">
            37 -3 -18 15 -44 hhcurveto
            return
          </CharString>
          <CharString index="125">
            -26 -5 5 26 hvcurveto
            305 -43 callsubr
            return
          </CharString>
          <CharString index="126">
            220 callsubr
            176 -426 123 callgsubr
          </CharString>
          <CharString index="127">
            26 7 -6 -26 hvcurveto
            -131 -66 callsubr
            -267 -213 hlineto
            13 callsubr
            525 hlineto
            17 11 3 10 7 hvcurveto
            -91 149 callgsubr
          </CharString>
          <CharString index="128">
            1 callsubr
            51 -14 callgsubr
            return
          </CharString>
          <CharString index="129">
            -83 callsubr
            -169 -84 callsubr
            return
          </CharString>
          <CharString index="130">
            hlineto
            -101 callsubr
            return
          </CharString>
          <CharString index="131">
            -132 137 rlineto
            51 -51 -43 8 -76 hhcurveto
            -123 -61 23 hlineto
            44 38 -4 -41 42 hvcurveto
            126 -128 -260 200 callgsubr
            return
          </CharString>
          <CharString index="132">
            164 callsubr
            -120 vlineto
            -42 18 -17 236 callgsubr
            -18 -41 vvcurveto
            -130 -105 callgsubr
            return
          </CharString>
          <CharString index="133">
            vlineto
            -40 19 134 callsubr
            -19 -17 -42 vvcurveto
            return
          </CharString>
          <CharString index="134">
            -1 callsubr
            -364 -34 callgsubr
            return
          </CharString>
          <CharString index="135">
            152 callgsubr
            11 11 hvcurveto
            -11 12 19 -5 24 hhcurveto
            return
          </CharString>
          <CharString index="136">
            -24 callgsubr
            563 123 vlineto
            endchar
          </CharString>
          <CharString index="137">
            rmoveto
            -163 hlineto
            -138 -148 rlineto
            132 hlineto
            return
          </CharString>
          <CharString index="138">
            42 callsubr
            112 -102 callgsubr
            202 hlineto
            return
          </CharString>
          <CharString index="139">
            -67 213 callgsubr
            276 hlineto
            -55 callsubr
            -62 107 callsubr
            -192 57 -173 -194 173 78 314 -86 callgsubr
            91 324 callsubr
            return
          </CharString>
          <CharString index="140">
            211 -63 callgsubr
            354 238 vlineto
            return
          </CharString>
          <CharString index="141">
            hlineto
            40 callgsubr
            return
          </CharString>
          <CharString index="142">
            38 -1 118 callgsubr
            return
          </CharString>
          <CharString index="143">
            83 callsubr
            7 -7 -25 hvcurveto
            -208 167 270 callgsubr
            return
          </CharString>
          <CharString index="144">
            rmoveto
            -45 callgsubr
            return
          </CharString>
          <CharString index="145">
            63 callgsubr
            11 11 hvcurveto
            -11 12 19 -5 24 hhcurveto
            return
          </CharString>
          <CharString index="146">
            6 26 vhcurveto
            return
          </CharString>
          <CharString index="147">
            hlineto
            16 11 3 8 7 hvcurveto
            return
          </CharString>
          <CharString index="148">
            28 callgsubr
            -414 -102 callsubr
            98 118 callsubr
            132 59 -132 -57 callsubr
            -60 -647 -67 callsubr
            168 -37 80 callgsubr
            540 152 callgsubr
            return
          </CharString>
          <CharString index="149">
            rmoveto
            -24 -7 68 callsubr
            return
          </CharString>
          <CharString index="150">
            -56 callsubr
            -90 return
          </CharString>
          <CharString index="151">
            32 callgsubr
            -129 vlineto
            -26 31 callgsubr
            -132 -59 132 32 callgsubr
            -187 -66 callsubr
            -162 hlineto
            -26 -7 -97 callgsubr
            115 -166 -129 -105 callgsubr
            406 -86 callgsubr
            return
          </CharString>
          <CharString index="152">
            214 callgsubr
            563 return
          </CharString>
          <CharString index="153">
            -400 -64 callsubr
            return
          </CharString>
          <CharString index="154">
            rmoveto
            24 4 5 25 vhcurveto
            94 hlineto
            25 4 -5 -24 hvcurveto
            -16 vlineto
            -24 -4 -5 -25 vhcurveto
            -94 hlineto
            -25 -4 5 24 hvcurveto
            181 -81 rmoveto
            48 24 22 49 hvcurveto
            36 vlineto
            48 -24 24 -48 vhcurveto
            -210 hlineto
            -48 -24 -24 -48 hvcurveto
            -36 vlineto
            -49 24 -22 48 vhcurveto
            return
          </CharString>
          <CharString index="155">
            210 callsubr
            268 callgsubr
          </CharString>
          <CharString index="156">
            113 callgsubr
            153 hlineto
            -119 -163 rlineto
            173 hlineto
            116 173 rlineto
            -103 167 266 -167 -80 189 callgsubr
            -6 7 25 hvcurveto
            210 238 callgsubr
          </CharString>
          <CharString index="157">
            162 callsubr
            323 485 rmoveto
            return
          </CharString>
          <CharString index="158">
            -329 8 callgsubr
            return
          </CharString>
          <CharString index="159">
            -107 callgsubr
            515 141 callgsubr
            563 122 vlineto
            endchar
          </CharString>
          <CharString index="160">
            -63 callsubr
            endchar
          </CharString>
          <CharString index="161">
            -289 hlineto
            -66 callgsubr
            -165 -102 callsubr
            289 -160 -303 -105 callgsubr
            395 -86 callgsubr
            return
          </CharString>
          <CharString index="162">
            -66 callsubr
            -494 -102 callsubr
            return
          </CharString>
          <CharString index="163">
            269 59 -269 215 310 59 -477 -622 490 59 return
          </CharString>
          <CharString index="164">
            -61 callgsubr
            endchar
          </CharString>
          <CharString index="165">
            rmoveto
            -25 31 callgsubr
            -228 -102 callsubr
            132 vlineto
            25 6 8 26 vhcurveto
            228 hlineto
            26 7 -8 -25 hvcurveto
            -44 91 rmoveto
            -213 1 callsubr
            39 vlineto
            111 -7 47 -1 5 vhcurveto
            return
          </CharString>
          <CharString index="166">
            -35 callsubr
            131 256 callgsubr
            -6 -25 hvcurveto
            -104 255 callsubr
            294 238 callgsubr
          </CharString>
          <CharString index="167">
            rmoveto
            348 callgsubr
            -138 -53 -12 callgsubr
            -128 -68 callgsubr
            53 -138 -63 -74 callsubr
            return
          </CharString>
          <CharString index="168">
            rmoveto
            -25 31 callgsubr
            213 callsubr
            -7 -97 callgsubr
            198 145 callgsubr
            614 196 rmoveto
            -1095 350 callgsubr
            -34 callgsubr
            -226 -105 callgsubr
            402 -86 callgsubr
            244 171 290 callgsubr
            172 282 callgsubr
            153 623 -19 callgsubr
          </CharString>
          <CharString index="169">
            -32 callgsubr
            360 -58 callgsubr
            return
          </CharString>
          <CharString index="170">
            -102 callsubr
            128 296 266 callgsubr
            -650 205 callsubr
            142 127 callsubr
            -343 138 callsubr
            return
          </CharString>
          <CharString index="171">
            485 rmoveto
            198 -485 rlineto
            58 hlineto
            -17 -37 rlineto
            -32 -14 -21 -13 -46 hhcurveto
            -66 -59 117 hlineto
            109 30 41 73 28 hvcurveto
            211 512 rlineto
            -155 hlineto
            -136 -384 -136 384 rlineto
            return
          </CharString>
          <CharString index="172">
            -78 51 callsubr
            return
          </CharString>
          <CharString index="173">
            191 callgsubr
            133 59 -781 159 callsubr
            138 hlineto
            -120 -163 rlineto
            172 hlineto
            117 173 rlineto
            -97 167 -49 callsubr
            267 59 hlineto
            endchar
          </CharString>
          <CharString index="174">
            -84 callsubr
            161 59 -283 -34 callgsubr
            return
          </CharString>
          <CharString index="175">
            -8 -26 vhcurveto
            -169 hlineto
            -26 -7 8 24 hvcurveto
            return
          </CharString>
          <CharString index="176">
            290 rmoveto
            40 -18 20 -39 vhcurveto
            -282 hlineto
            -38 -19 -20 -40 hvcurveto
            -229 vlineto
            -41 19 -19 38 359 callsubr
            41 hvcurveto
            -120 13 rmoveto
            -20 -3 -4 -20 vhcurveto
            -109 156 callsubr
            109 hlineto
            20 3 -4 -20 hvcurveto
            -242 346 rmoveto
            -468 -622 rlineto
            124 hlineto
            469 622 rlineto
            -432 -60 rmoveto
            40 -18 19 return
          </CharString>
          <CharString index="177">
            -32 callsubr
            -275 hlineto
            -26 -7 -97 callgsubr
            55 -166 -69 248 callgsubr
            276 -53 callgsubr
            -30 return
          </CharString>
          <CharString index="178">
            -66 callsubr
            -191 return
          </CharString>
          <CharString index="179">
            7 callgsubr
            165 21 callgsubr
            -197 hlineto
            -66 callgsubr
            return
          </CharString>
          <CharString index="180">
            -103 callgsubr
            177 vlineto
            72 -8 62 338 callgsubr
            -5 -8 -2 -12 hhcurveto
            return
          </CharString>
          <CharString index="181">
            hlineto
            -2 callgsubr
            return
          </CharString>
          <CharString index="182">
            353 1085 3 callgsubr
            -1105 -59 466 hlineto
            -55 callsubr
            -151 -88 callgsubr
            -191 84 -167 -355 hlineto
            -107 callgsubr
            396 hlineto
            53 23 170 callsubr
            198 313 vlineto
            53 24 25 53 hvcurveto
            38 148 vlineto
            26 6 -8 -24 hvcurveto
            return
          </CharString>
          <CharString index="183">
            -102 callsubr
            98 158 callgsubr
            6 26 hvcurveto
            140 vlineto
            25 6 201 callgsubr
            7 319 callsubr
            140 119 -51 callgsubr
            -364 -34 callgsubr
            -156 80 callgsubr
            return
          </CharString>
          <CharString index="184">
            rmoveto
            132 hlineto
            169 148 rlineto
            -163 hlineto
            return
          </CharString>
          <CharString index="185">
            74 callsubr
            -153 vlineto
            -53 25 -25 344 callsubr
            126 -102 callgsubr
            148 -48 callgsubr
            -294 55 callsubr
            148 -26 callsubr
            118 59 -118 17 callgsubr
            160 -26 callsubr
            return
          </CharString>
          <CharString index="186">
            -53 -24 -24 -53 hvcurveto
            -253 126 callgsubr
            271 return
          </CharString>
          <CharString index="187">
            -169 93 callgsubr
            return
          </CharString>
          <CharString index="188">
            -6 -26 vhcurveto
            -160 hlineto
            -26 -7 -97 callgsubr
            return
          </CharString>
          <CharString index="189">
            7 callgsubr
            354 238 -352 vlineto
            -38 callgsubr
            232 286 186 callgsubr
            136 59 -813 -59 111 -368 95 callsubr
            370 -22 callgsubr
            227 59 hlineto
            endchar
          </CharString>
          <CharString index="190">
            -105 callgsubr
            306 59 -184 -90 callsubr
            return
          </CharString>
          <CharString index="191">
            -532 -12 callgsubr
            -172 -68 callgsubr
            return
          </CharString>
          <CharString index="192">
            -426 123 callsubr
          </CharString>
          <CharString index="193">
            hlineto
            258 callsubr
            return
          </CharString>
          <CharString index="194">
            32 callgsubr
            -131 -66 callsubr
            return
          </CharString>
          <CharString index="195">
            -59 454 32 callgsubr
            -169 -66 callsubr
            -179 146 367 callgsubr
            373 59 -251 -102 callsubr
            180 301 vlineto
            258 callsubr
            73 37 vlineto
            38 34 -7 -38 36 hvcurveto
            103 -112 -235 -220 rlineto
            184 hlineto
            194 182 rlineto
            return
          </CharString>
          <CharString index="196">
            -59 505 -78 -329 -15 callsubr
            -66 -105 callgsubr
            311 hlineto
            -55 callsubr
            -64 107 callsubr
            -211 53 -173 -190 173 78 333 -86 callgsubr
            92 -51 callgsubr
            -311 hlineto
            -26 -6 6 26 hvcurveto
            38 346 callgsubr
          </CharString>
          <CharString index="197">
            -59 93 hlineto
            155 callsubr
            218 59 -96 -102 callsubr
            return
          </CharString>
          <CharString index="198">
            -74 callsubr
            220 hlineto
            32 17 11 22 8 hvcurveto
            return
          </CharString>
          <CharString index="199">
            -253 105 callsubr
          </CharString>
          <CharString index="200">
            -86 callgsubr
            167 return
          </CharString>
          <CharString index="201">
            563 -19 callgsubr
          </CharString>
          <CharString index="202">
            vlineto
            99 callgsubr
            return
          </CharString>
          <CharString index="203">
            -6 -4 -10 -17 vvcurveto
            return
          </CharString>
          <CharString index="204">
            -66 145 485 6 callsubr
            356 332 callgsubr
            -75 -90 rmoveto
            -305 -12 callgsubr
            -144 29 callgsubr
            144 -60 callsubr
            return
          </CharString>
          <CharString index="205">
            -107 callgsubr
            291 -24 callgsubr
            370 -22 callgsubr
            return
          </CharString>
          <CharString index="206">
            -15 callsubr
            -322 -105 callgsubr
            return
          </CharString>
          <CharString index="207">
            252 137 rmoveto
            -68 callsubr
            -477 426 rmoveto
            217 callsubr
            59 -765 vlineto
            return
          </CharString>
          <CharString index="208">
            811 169 2 callsubr
            return
          </CharString>
          <CharString index="209">
            -26 -7 6 26 hvcurveto
            31 -14 callgsubr
            373 137 return
          </CharString>
          <CharString index="210">
            vlineto
            145 callsubr
            544 296 callsubr
            166 142 callsubr
          </CharString>
          <CharString index="211">
            -392 349 callsubr
            -176 -107 callsubr
            160 59 339 callgsubr
            return
          </CharString>
          <CharString index="212">
            vlineto
            52 callgsubr
          </CharString>
          <CharString index="213">
            vhcurveto
            -5 vlineto
            -38 -1 return
          </CharString>
          <CharString index="214">
            vlineto
            -26 238 callsubr
            return
          </CharString>
          <CharString index="215">
            543 -45 callsubr
            return
          </CharString>
          <CharString index="216">
            -51 callgsubr
            -275 -37 callsubr
          </CharString>
          <CharString index="217">
            -34 310 callsubr
            return
          </CharString>
          <CharString index="218">
            vlineto
            -358 -287 249 callgsubr
            171 154 rlineto
            0 return
          </CharString>
          <CharString index="219">
            53 -24 199 callsubr
            return
          </CharString>
          <CharString index="220">
            vlineto
            151 callsubr
            return
          </CharString>
          <CharString index="221">
            95 callsubr
            563 123 vlineto
            endchar
          </CharString>
          <CharString index="222">
            -426 rmoveto
            133 callsubr
            return
          </CharString>
          <CharString index="223">
            563 259 callsubr
          </CharString>
          <CharString index="224">
            vlineto
            165 callsubr
            return
          </CharString>
          <CharString index="225">
            vlineto
            26 -92 callgsubr
            return
          </CharString>
          <CharString index="226">
            -59 487 -78 -314 -26 callgsubr
            4 callgsubr
            return
          </CharString>
          <CharString index="227">
            171 callsubr
            176 45 callsubr
            return
          </CharString>
          <CharString index="228">
            -82 callgsubr
            -238 86 callgsubr
            return
          </CharString>
          <CharString index="229">
            165 142 callsubr
          </CharString>
          <CharString index="230">
            167 116 callsubr
          </CharString>
          <CharString index="231">
            288 254 233 rmoveto
            262 callsubr
            431 59 -1040 -59 445 -239 vlineto
            224 callsubr
            return
          </CharString>
          <CharString index="232">
            -86 callgsubr
            148 vlineto
            53 -24 7 callsubr
          </CharString>
          <CharString index="233">
            75 callgsubr
            -180 -74 callsubr
            return
          </CharString>
          <CharString index="234">
            -48 callgsubr
            -143 -66 callsubr
            return
          </CharString>
          <CharString index="235">
            -102 callgsubr
            201 return
          </CharString>
          <CharString index="236">
            -426 -23 callgsubr
            return
          </CharString>
          <CharString index="237">
            rmoveto
            -25 -7 -7 -26 vhcurveto
            -202 hlineto
            -26 -6 7 25 hvcurveto
            303 331 callsubr
            return
          </CharString>
          <CharString index="238">
            53 -26 26 -53 vhcurveto
            -389 -6 callsubr
            return
          </CharString>
          <CharString index="239">
            -331 -105 callgsubr
            437 -35 callsubr
            331 -1 callsubr
            -136 78 hlineto
            endchar
          </CharString>
          <CharString index="240">
            73 callsubr
            -275 426 rmoveto
            return
          </CharString>
          <CharString index="241">
            -19 38 106 callsubr
            return
          </CharString>
          <CharString index="242">
            156 callgsubr
            112 322 callgsubr
            -732 -143 rmoveto
            -66 callgsubr
            -169 -107 callsubr
            201 hlineto
            return
          </CharString>
          <CharString index="243">
            14 callgsubr
            endchar
          </CharString>
          <CharString index="244">
            rmoveto
            -25 -6 358 callsubr
            -331 hlineto
            -69 callsubr
            557 vlineto
            -55 callsubr
            return
          </CharString>
          <CharString index="245">
            -201 hlineto
            -107 callgsubr
            return
          </CharString>
          <CharString index="246">
            -23 -11 -9 -25 vhcurveto
            return
          </CharString>
          <CharString index="247">
            -53 hvcurveto
            -133 return
          </CharString>
          <CharString index="248">
            vlineto
            24 6 7 23 1 vhcurveto
            123 59 return
          </CharString>
          <CharString index="249">
            563 123 hlineto
            endchar
          </CharString>
          <CharString index="250">
            hlineto
            121 callgsubr
            587 -43 callgsubr
          </CharString>
          <CharString index="251">
            -392 vlineto
            -97 callsubr
            return
          </CharString>
          <CharString index="252">
            -107 callgsubr
            400 -86 callgsubr
            121 -167 -107 -88 callgsubr
            -156 -102 callsubr
            174 314 vlineto
            8 callsubr
            return
          </CharString>
          <CharString index="253">
            -47 150 callgsubr
          </CharString>
          <CharString index="254">
            171 callgsubr
            12 10 1 return
          </CharString>
          <CharString index="255">
            301 226 callsubr
          </CharString>
          <CharString index="256">
            313 callgsubr
            -302 243 rlineto
            248 59 -356 -78 callgsubr
            369 -43 callgsubr
          </CharString>
          <CharString index="257">
            423 -194 rmoveto
            164 117 -164 hlineto
            return
          </CharString>
          <CharString index="258">
            -41 188 callsubr
            return
          </CharString>
          <CharString index="259">
            -105 callgsubr
            4 callgsubr
            endchar
          </CharString>
          <CharString index="260">
            vhcurveto
            -392 hlineto
            -26 -7 -97 callgsubr
            83 214 vlineto
            -58 callsubr
            322 callsubr
            return
          </CharString>
          <CharString index="261">
            rmoveto
            -24 -75 callsubr
            -170 hlineto
            -26 -6 7 24 hvcurveto
            108 -26 callsubr
            202 hlineto
            return
          </CharString>
          <CharString index="262">
            164 callsubr
            -316 -105 callgsubr
            return
          </CharString>
          <CharString index="263">
            hlineto
            -20 -3 4 20 hvcurveto
            202 vlineto
            20 3 4 20 vhcurveto
            return
          </CharString>
          <CharString index="264">
            vlineto
            25 7 7 221 callgsubr
            return
          </CharString>
          <CharString index="265">
            hlineto
            138 callgsubr
            return
          </CharString>
          <CharString index="266">
            -59 481 -383 vlineto
            42 callgsubr
            -244 -105 callgsubr
            return
          </CharString>
          <CharString index="267">
            244 callgsubr
            hlineto
            endchar
          </CharString>
          <CharString index="268">
            vlineto
            -53 24 -24 53 vhcurveto
            305 59 -183 195 callsubr
            152 -48 callgsubr
            -208 166 208 -102 callgsubr
            return
          </CharString>
          <CharString index="269">
            7 callgsubr
            104 237 callsubr
            -242 rlineto
            -1 -4 -6 -1 -8 hhcurveto
            return
          </CharString>
          <CharString index="270">
            -58 callgsubr
            403 hlineto
            53 return
          </CharString>
          <CharString index="271">
            -9 96 callsubr
            return
          </CharString>
          <CharString index="272">
            53 -24 25 -53 vhcurveto
            return
          </CharString>
          <CharString index="273">
            303 callgsubr
            -28 callsubr
            return
          </CharString>
          <CharString index="274">
            -5 170 callgsubr
            return
          </CharString>
          <CharString index="275">
            rmoveto
            235 callsubr
            132 hlineto
            endchar
          </CharString>
          <CharString index="276">
            -392 349 callsubr
            -177 -107 callsubr
            161 59 -283 328 callsubr
            return
          </CharString>
          <CharString index="277">
            -77 callgsubr
            134 -166 -120 vlineto
            208 callsubr
            return
          </CharString>
          <CharString index="278">
            163 callsubr
            24 24 53 hvcurveto
            271 return
          </CharString>
          <CharString index="279">
            vlineto
            -42 18 -17 35 callsubr
            -18 -40 vvcurveto
            -108 -105 callgsubr
            return
          </CharString>
          <CharString index="280">
            rmoveto
            -567 -59 202 -563 161 563 204 hlineto
            endchar
          </CharString>
          <CharString index="281">
            -381 86 3 callgsubr
            -622 166 622 vlineto
            return
          </CharString>
          <CharString index="282">
            -314 -15 callsubr
            return
          </CharString>
          <CharString index="283">
            269 callgsubr
            -255 -156 hlineto
            -107 callgsubr
            514 211 callsubr
            332 callsubr
          </CharString>
          <CharString index="284">
            vlineto
            -2 callgsubr
            return
          </CharString>
          <CharString index="285">
            563 rmoveto
            307 -197 hlineto
            -84 7 -74 0 vhcurveto
            -274 -71 7 callgsubr
            184 vlineto
            72 -10 66 0 vhcurveto
            303 -343 rlineto
            -8 -4 -9 -3 -16 hhcurveto
            return
          </CharString>
          <CharString index="286">
            25 7 82 callgsubr
            -162 -314 73 callgsubr
            return
          </CharString>
          <CharString index="287">
            -140 rmoveto
            -26 -7 -8 -26 vhcurveto
            -102 -59 196 hlineto
            54 30 27 57 hvcurveto
            101 -145 vlineto
            return
          </CharString>
          <CharString index="288">
            vlineto
            -289 232 286 callgsubr
            366 28 callsubr
            return
          </CharString>
          <CharString index="289">
            406 -57 callgsubr
            endchar
          </CharString>
          <CharString index="290">
            -299 231 63 callgsubr
            10 10 hvcurveto
            -10 13 18 -5 24 hhcurveto
            return
          </CharString>
          <CharString index="291">
            rmoveto
            -289 151 callgsubr
            -463 hlineto
            -26 return
          </CharString>
          <CharString index="292">
            313 callsubr
            87 vlineto
            24 8 9 26 vhcurveto
            return
          </CharString>
          <CharString index="293">
            -54 callsubr
            70 return
          </CharString>
          <CharString index="294">
            vlineto
            165 callgsubr
            return
          </CharString>
          <CharString index="295">
            18 250 callsubr
            return
          </CharString>
          <CharString index="296">
            235 hmoveto
            485 -155 -485 vlineto
            return
          </CharString>
          <CharString index="297">
            -125 -105 callgsubr
            return
          </CharString>
          <CharString index="298">
            18 19 40 hvcurveto
            -120 14 225 callgsubr
            return
          </CharString>
          <CharString index="299">
            rmoveto
            -2 callgsubr
            -97 167 83 vlineto
            25 6 199 callgsubr
            -191 49 -167 return
          </CharString>
          <CharString index="300" raw="1">
            fb690656 0b  
          </CharString>
          <CharString index="301">
            36 13 39 callsubr
            48 63 -95 hlineto
            -57 -27 -28 -56 hvcurveto
            -16 vlineto
            -35 7 -30 3 -11 vhcurveto
            -6 12 -17 37 -30 40 -60 79 rcurveline
            -155 hlineto
            87 -107 return
          </CharString>
          <CharString index="302">
            hlineto
            -26 -7 -97 callgsubr
            303 -102 callgsubr
            return
          </CharString>
          <CharString index="303">
            -103 callsubr
            155 -53 callgsubr
            return
          </CharString>
          <CharString index="304">
            vlineto
            139 callsubr
            return
          </CharString>
          <CharString index="305">
            166 563 return
          </CharString>
          <CharString index="306">
            -7 callsubr
            -398 -34 callgsubr
            return
          </CharString>
          <CharString index="307">
            -240 hlineto
            166 callgsubr
            return
          </CharString>
          <CharString index="308">
            hlineto
            12 248 callsubr
            return
          </CharString>
          <CharString index="309">
            vlineto
            -94 callsubr
            return
          </CharString>
          <CharString index="310">
            -241 -105 callgsubr
            233 hlineto
            -146 -162 rlineto
            171 hlineto
            143 173 rlineto
            -101 -78 callsubr
          </CharString>
          <CharString index="311">
            -81 callsubr
            -256 -1 callgsubr
            514 211 callsubr
            return
          </CharString>
          <CharString index="312">
            -67 callsubr
            335 247 callgsubr
            return
          </CharString>
          <CharString index="313">
            318 callgsubr
            259 return
          </CharString>
          <CharString index="314">
            252 228 callsubr
            return
          </CharString>
          <CharString index="315">
            -25 31 callgsubr
            -151 -102 callsubr
            return
          </CharString>
          <CharString index="316">
            hlineto
            -57 -18 -22 -50 hvcurveto
            -5 hlineto
            50 -18 22 -57 vhcurveto
            return
          </CharString>
          <CharString index="317">
            -271 hlineto
            -107 callgsubr
            return
          </CharString>
          <CharString index="318">
            -39 callsubr
            -90 return
          </CharString>
          <CharString index="319">
            143 -60 callsubr
            return
          </CharString>
          <CharString index="320">
            -168 hlineto
            -26 return
          </CharString>
          <CharString index="321">
            174 rmoveto
            284 callsubr
            -393 293 callsubr
            214 vlineto
            -58 callsubr
            322 callsubr
            return
          </CharString>
          <CharString index="322">
            -18 callsubr
            122 vlineto
            endchar
          </CharString>
          <CharString index="323">
            91 130 callsubr
            return
          </CharString>
          <CharString index="324">
            -71 callsubr
            90 return
          </CharString>
          <CharString index="325">
            190 callsubr
            -50 callsubr
          </CharString>
          <CharString index="326">
            176 hlineto
            -32 callsubr
            -398 74 callsubr
            -60 return
          </CharString>
          <CharString index="327">
            403 -50 callgsubr
            return
          </CharString>
          <CharString index="328">
            -87 callsubr
            184 hlineto
            return
          </CharString>
          <CharString index="329">
            -34 callgsubr
            -98 return
          </CharString>
          <CharString index="330">
            285 callsubr
            23 return
          </CharString>
          <CharString index="331">
            -66 callgsubr
            -139 164 -167 -379 219 callgsubr
            return
          </CharString>
          <CharString index="332">
            -712 -189 3 callgsubr
            -28 50 -32 46 -54 63 -44 52 rcurveline
            -159 361 callgsubr
            rlineto
            76 -72 33 -20 0 vvcurveto
            return
          </CharString>
          <CharString index="333">
            -24 callgsubr
            563 122 vlineto
            endchar
          </CharString>
          <CharString index="334">
            147 callsubr
            2 8 hvcurveto
            return
          </CharString>
          <CharString index="335">
            234 callsubr
            166 -103 callsubr
            return
          </CharString>
          <CharString index="336">
            166 116 callsubr
          </CharString>
          <CharString index="337">
            -59 495 -78 -313 74 callsubr
            -226 -15 callgsubr
            403 -86 callgsubr
            return
          </CharString>
          <CharString index="338">
            -392 hlineto
            154 callgsubr
            return
          </CharString>
          <CharString index="339">
            -712 19 833 rmoveto
            -211 -34 callgsubr
            -158 167 144 -103 callsubr
            89 hlineto
            return
          </CharString>
          <CharString index="340">
            rmoveto
            -464 vlineto
            -278 464 rlineto
            -146 -622 149 465 hlineto
            281 -465 rlineto
            143 622 hlineto
            return
          </CharString>
          <CharString index="341">
            137 7 callgsubr
            return
          </CharString>
          <CharString index="342">
            -162 hlineto
            169 -148 rlineto
            return
          </CharString>
          <CharString index="343">
            -646 -34 callgsubr
            return
          </CharString>
          <CharString index="344">
            78 callgsubr
            302 return
          </CharString>
          <CharString index="345">
            -6 -6 -26 vhcurveto
            return
          </CharString>
          <CharString index="346">
            -59 124 vlineto
            16 callgsubr
            return
          </CharString>
          <CharString index="347">
            169 rmoveto
            -66 callgsubr
            -168 -107 callsubr
            200 hlineto
            return
          </CharString>
          <CharString index="348">
            -392 hlineto
            -97 callsubr
            return
          </CharString>
          <CharString index="349">
            vlineto
            51 -22 26 -55 vhcurveto
            -358 hlineto
            -54 -23 -26 -51 hvcurveto
            -94 vlineto
            -29 5 -18 13 -9 vhcurveto
            -124 hlineto
            endchar
          </CharString>
          <CharString index="350">
            -34 callgsubr
            -238 292 callgsubr
            return
          </CharString>
          <CharString index="351">
            vlineto
            -41 19 -18 305 callgsubr
            -1 -19 -18 -41 vvcurveto
            return
          </CharString>
          <CharString index="352">
            hlineto
            -96 -162 rlineto
            159 hlineto
            68 143 return
          </CharString>
          <CharString index="353">
            -91 callsubr
            157 -48 callgsubr
            return
          </CharString>
          <CharString index="354">
            26 hvcurveto
            38 vlineto
            26 6 return
          </CharString>
          <CharString index="355">
            10 1 2 8 hvcurveto
            return
          </CharString>
          <CharString index="356">
            137 162 callsubr
            return
          </CharString>
          <CharString index="357">
            -18 38 -1 vhcurveto
            return
          </CharString>
          <CharString index="358">
            42 649 426 rmoveto
            209 callgsubr
            177 callsubr
            return
          </CharString>
          <CharString index="359">
            -40 callsubr
            649 hmoveto
            59 return
          </CharString>
          <CharString index="360">
            -105 callgsubr
            361 -43 callgsubr
          </CharString>
          <CharString index="361">
            hlineto
            168 callgsubr
          </CharString>
          <CharString index="362">
            -88 callgsubr
            -208 -102 callsubr
            return
          </CharString>
          <CharString index="363" raw="1">
            691dfb56 221d0b  
          </CharString>
          <CharString index="364">
            vlineto
            53 -23 23 -53 vhcurveto
            -367 hlineto
            -53 -25 -23 -53 hvcurveto
            return
          </CharString>
          <CharString index="365">
            53 25 -77 callgsubr
            return
          </CharString>
          <CharString index="366">
            122 hlineto
            endchar
          </CharString>
          <CharString index="367">
            rmoveto
            193 callgsubr
            102 78 callgsubr
            300 -241 rlineto
            -1 -4 -4 0 -6 hhcurveto
            return
          </CharString>
          <CharString index="368">
            -105 callgsubr
            219 59 -97 -99 callsubr
            return
          </CharString>
          <CharString index="369">
            258 15 callgsubr
            return
          </CharString>
          <CharString index="370">
            rmoveto
            -104 callgsubr
            return
          </CharString>
          <CharString index="371">
            276 callgsubr
            271 return
          </CharString>
          <CharString index="372">
            355 callgsubr
            189 576 190 callsubr
            return
          </CharString>
          <CharString index="373">
            -51 callgsubr
            -307 320 callgsubr
          </CharString>
          <CharString index="374">
            393 -35 callsubr
            408 187 -563 149 callgsubr
          </CharString>
          <CharString index="375">
            rmoveto
            295 callgsubr
            -461 hmoveto
            -109 return
          </CharString>
          <CharString index="376">
            -169 -102 callsubr
            return
          </CharString>
          <CharString index="377">
            -253 -15 callgsubr
            return
          </CharString>
          <CharString index="378">
            391 3 callgsubr
            -122 return
          </CharString>
          <CharString index="379">
            rmoveto
            -436 -58 436 hlineto
            return
          </CharString>
          <CharString index="380">
            75 callgsubr
            -105 -72 -59 72 -426 155 426 315 callgsubr
            154 return
          </CharString>
          <CharString index="381">
            hlineto
            -92 -163 rlineto
            160 hlineto
            70 149 69 -149 rlineto
            160 hlineto
            -90 163 rlineto
            return
          </CharString>
          <CharString index="382">
            -52 callsubr
            endchar
          </CharString>
          <CharString index="383">
            -98 callgsubr
            218 59 -96 195 callsubr
            return
          </CharString>
          <CharString index="384">
            22 6 6 23 vhcurveto
            31 59 -31 hlineto
            -23 -6 7 21 hvcurveto
            29 vlineto
            22 6 6 23 vhcurveto
            return
          </CharString>
          <CharString index="385">
            vlineto
            48 -17 30 -57 vhcurveto
            -270 66 hlineto
            17 -4 10 -9 6 vhcurveto
            453 hlineto
            endchar
          </CharString>
          <CharString index="386">
            rmoveto
            56 hlineto
            112 202 rlineto
            68 -168 vlineto
            return
          </CharString>
          <CharString index="387">
            -66 callgsubr
            -139 197 return
          </CharString>
          <CharString index="388">
            -78 -134 -15 callsubr
            return
          </CharString>
          <CharString index="389">
            vlineto
            -53 22 -22 53 vhcurveto
            return
          </CharString>
          <CharString index="390">
            hlineto
            -25 31 callgsubr
            return
          </CharString>
          <CharString index="391">
            -28 -10 -9 -27 vhcurveto
            return
          </CharString>
          <CharString index="392">
            314 vlineto
            53 return
          </CharString>
          <CharString index="393">
            rmoveto
            -109 174 109 vlineto
            112 367 callsubr
          </CharString>
          <CharString index="394">
            -107 callgsubr
            -18 callgsubr
            return
          </CharString>
          <CharString index="395">
            355 -93 callsubr
            164 -71 callgsubr
          </CharString>
          <CharString index="396">
            514 311 callsubr
          </CharString>
          <CharString index="397">
            -19 20 -36 3 vhcurveto
            36 2 19 22 40 vvcurveto
            return
          </CharString>
          <CharString index="398">
            325 callgsubr
            59 return
          </CharString>
          <CharString index="399">
            -60 callsubr
            -56 return
          </CharString>
          <CharString index="400">
            -102 callsubr
            83 return
          </CharString>
          <CharString index="401">
            -79 -105 callgsubr
            return
          </CharString>
          <CharString index="402">
            168 131 -168 hlineto
            return
          </CharString>
          <CharString index="403">
            hmoveto
            -289 -622 return
          </CharString>
          <CharString index="404">
            308 callsubr
            102 return
          </CharString>
          <CharString index="405">
            -271 -56 callgsubr
            return
          </CharString>
          <CharString index="406">
            426 351 callgsubr
            return
          </CharString>
          <CharString index="407">
            rmoveto
            -166 -113 166 hlineto
            return
          </CharString>
          <CharString index="408">
            485 263 callsubr
            return
          </CharString>
          <CharString index="409">
            -246 hlineto
            313 callgsubr
            return
          </CharString>
          <CharString index="410">
            rmoveto
            137 134 59 return
          </CharString>
          <CharString index="411">
            rmoveto
            137 128 59 return
          </CharString>
          <CharString index="412">
            rlineto
            0 -6 -61 -47 vvcurveto
            return
          </CharString>
          <CharString index="413">
            vhcurveto
            -4 vlineto
            -38 -1 -18 -18 -41 vvcurveto
            338 callsubr
            return
          </CharString>
          <CharString index="414" raw="1">
            f8020af2 d91d0b  
          </CharString>
          <CharString index="415">
            -188 91 callgsubr
            return
          </CharString>
          <CharString index="416">
            -646 243 callsubr
            return
          </CharString>
          <CharString index="417">
            -53 hlineto
            244 callgsubr
            return
          </CharString>
          <CharString index="418">
            211 callsubr
            -78 callsubr
          </CharString>
          <CharString index="419">
            -622 rmoveto
            192 622 -192 hlineto
            return
          </CharString>
          <CharString index="420">
            -26 -8 9 24 hvcurveto
            return
          </CharString>
          <CharString index="421">
            rlineto
            170 hlineto
            return
          </CharString>
          <CharString index="422">
            7 callgsubr
            177 347 callgsubr
            299 return
          </CharString>
          <CharString index="423">
            -395 156 callgsubr
            return
          </CharString>
          <CharString index="424">
            -81 callgsubr
            135 59 return
          </CharString>
          <CharString index="425">
            hlineto
            56 18 30 48 hvcurveto
            466 vlineto
            48 -18 30 -56 vhcurveto
            endchar
          </CharString>
          <CharString index="426">
            -38 callsubr
            -105 return
          </CharString>
          <CharString index="427">
            -167 323 callsubr
            return
          </CharString>
          <CharString index="428">
            301 callsubr
            -69 return
          </CharString>
          <CharString index="429">
            79 -51 callgsubr
            return
          </CharString>
          <CharString index="430">
            -95 vlineto
            -38 callgsubr
            return
          </CharString>
          <CharString index="431">
            vlineto
            53 -24 23 -53 vhcurveto
            return
          </CharString>
          <CharString index="432">
            hlineto
            -26 -7 7 26 hvcurveto
            return
          </CharString>
          <CharString index="433">
            -52 callgsubr
            -331 -105 callgsubr
            return
          </CharString>
          <CharString index="434">
            -34 callgsubr
            -192 -105 callgsubr
            return
          </CharString>
          <CharString index="435">
            hlineto
            -53 -25 121 callsubr
            return
          </CharString>
          <CharString index="436">
            -88 callgsubr
            -170 -102 callsubr
            return
          </CharString>
          <CharString index="437">
            -40 18 -19 38 -1 vhcurveto
            -4 271 callgsubr
            return
          </CharString>
          <CharString index="438">
            322 callgsubr
            26 7 -7 -25 hvcurveto
            return
          </CharString>
          <CharString index="439">
            166 94 callsubr
          </CharString>
          <CharString index="440">
            -239 rlineto
            -3 return
          </CharString>
          <CharString index="441" raw="1">
            221df7c5 c6fb4b06 710b 
          </CharString>
          <CharString index="442">
            55 hlineto
            113 202 rlineto
            78 -168 vlineto
            endchar
          </CharString>
          <CharString index="443">
            45 callsubr
            122 return
          </CharString>
          <CharString index="444">
            rmoveto
            -174 -109 174 hlineto
            return
          </CharString>
          <CharString index="445">
            -115 -105 callgsubr
            return
          </CharString>
          <CharString index="446">
            -313 vlineto
            -53 -24 -23 -53 hvcurveto
            return
          </CharString>
          <CharString index="447">
            137 125 59 return
          </CharString>
          <CharString index="448">
            1 3 9 hvcurveto
            return
          </CharString>
          <CharString index="449">
            -26 -7 6 26 hvcurveto
            101 -14 callgsubr
            return
          </CharString>
          <CharString index="450">
            hlineto
            -50 -152 rlineto
            134 hlineto
            50 152 rlineto
            return
          </CharString>
          <CharString index="451">
            53 vhcurveto
            182 285 callgsubr
            -97 callgsubr
            return
          </CharString>
          <CharString index="452">
            364 callsubr
            endchar
          </CharString>
          <CharString index="453">
            hlineto
            -26 -7 6 25 hvcurveto
            return
          </CharString>
          <CharString index="454">
            rmoveto
            -26 -5 5 26 hvcurveto
            return
          </CharString>
          <CharString index="455">
            -59 484 -78 -299 return
          </CharString>
          <CharString index="456">
            hlineto
            -38 callgsubr
            return
          </CharString>
          <CharString index="457" raw="1">
            fcc7f75a 0a0b  
          </CharString>
          <CharString index="458" raw="1">
            fb1f0756 0b  
          </CharString>
          <CharString index="459">
            485 rmoveto
            236 callsubr
            return
          </CharString>
          <CharString index="460">
            -15 callsubr
            -196 vlineto
            -24 -8 return
          </CharString>
          <CharString index="461">
            hlineto
            23 7 -8 -20 12 hvcurveto
            106 -183 rlineto
            return
          </CharString>
          <CharString index="462">
            -563 -78 callsubr
          </CharString>
          <CharString index="463">
            192 182 -192 hlineto
            return
          </CharString>
          <CharString index="464">
            -102 callsubr
            76 return
          </CharString>
          <CharString index="465">
            -83 callsubr
            -194 146 return
          </CharString>
          <CharString index="466">
            vhcurveto
            282 hlineto
            39 18 19 return
          </CharString>
          <CharString index="467">
            286 hlineto
            26 6 return
          </CharString>
          <CharString index="468" raw="1">
            9d78b18a 1e0b  
          </CharString>
          <CharString index="469">
            rlineto
            117 hlineto
            return
          </CharString>
          <CharString index="470">
            -26 callsubr
            374 137 return
          </CharString>
          <CharString index="471">
            hlineto
            92 -107 56 -65 41 -33 27 -17 rlinecurve
            return
          </CharString>
          <CharString index="472">
            47 260 rmoveto
            583 101 -583 hlineto
            return
          </CharString>
          <CharString index="473" raw="1">
            f7a5f77e 0a0b  
          </CharString>
          <CharString index="474">
            hmoveto
            295 callgsubr
            endchar
          </CharString>
          <CharString index="475">
            -59 121 hlineto
            return
          </CharString>
        <CharString name=".notdef">
          -224 endchar
        </CharString>
        <CharString name="A">
          9 241 182 -48 callsubr
        </CharString>
        <CharString name="AE">
          342 313 194 rmoveto
          216 336 rlineto
          -336 vlineto
          162 -135 rmoveto
          230 269 59 -269 215 304 59 -565 vlineto
          -412 -622 314 callsubr
          87 135 rlineto
          254 -135 479 59 hlineto
          endchar
        </CharString>
        <CharString name="Aacute">
          7 603 818 30 callsubr
          -194 -488 -48 callsubr
        </CharString>
        <CharString name="Abreve">
          7 513 669 60 callsubr
          35 -487 -48 callsubr
        </CharString>
        <CharString name="Acircumflex">
          7 359 762 rmoveto
          43 callgsubr
          -175 -152 rlineto
          154 hlineto
          -22 -487 -48 callsubr
        </CharString>
        <CharString name="Adieresis">
          7 591 778 175 callgsubr
          -286 109 175 callgsubr
          -65 -487 -48 callsubr
        </CharString>
        <CharString name="Agrave">
          7 417 670 128 callgsubr
          -45 -488 -48 callsubr
        </CharString>
        <CharString name="Amacron">
          7 581 728 272 callsubr
          -341 -488 -48 callsubr
        </CharString>
        <CharString name="Aogonek">
          7 240 182 rmoveto
          119 342 119 -342 rlineto
          77 -370 91 callgsubr
          89 6 hlineto
          -239 622 rlineto
          -204 hlineto
          -238 -622 rlineto
          157 hlineto
          43 123 rlineto
          279 hlineto
          43 -123 rlineto
          -34 -53 vlineto
          160 callsubr
        </CharString>
        <CharString name="Aring">
          7 284 767 47 callsubr
          -15 -488 -48 callsubr
        </CharString>
        <CharString name="Atilde">
          7 248 725 rmoveto
          13 6 8 13 vhcurveto
          -10 callgsubr
          vlineto
          -8 -487 -48 callsubr
        </CharString>
        <CharString name="B">
          1 82 3 callgsubr
          -622 477 vlineto
          53 26 26 53 hvcurveto
          170 vlineto
          39 290 callsubr
          168 -57 callgsubr
          -76 -537 rmoveto
          -20 -9 -6 -25 vhcurveto
          -205 223 208 -60 callsubr
          121 vmoveto
          -45 callgsubr
          -208 222 208 -60 callsubr
          endchar
        </CharString>
        <CharString name="C">
          -37 622 403 -12 callsubr
        </CharString>
        <CharString name="CR">
          -712 endchar
        </CharString>
        <CharString name="Cacute">
          -44 577 818 30 callsubr
          211 -267 -12 callsubr
        </CharString>
        <CharString name="Ccaron">
          -44 421 669 -16 callsubr
          350 -266 -12 callsubr
        </CharString>
        <CharString name="Ccedilla">
          -44 267 180 callsubr
          352 451 -12 callsubr
        </CharString>
        <CharString name="D">
          3 478 223 callgsubr
          -203 504 203 -60 callsubr
          -396 90 rmoveto
          -622 479 vlineto
          53 26 26 53 hvcurveto
          464 -57 callgsubr
          endchar
        </CharString>
        <CharString name="Dcaron">
          6 427 669 -16 callsubr
          207 -579 37 callsubr
          -203 504 203 -60 callsubr
          -396 90 rmoveto
          -622 479 vlineto
          53 26 26 53 hvcurveto
          464 -57 callgsubr
          endchar
        </CharString>
        <CharString name="Dcroat">
          44 516 133 callgsubr
        </CharString>
        <CharString name="E">
          -101 249 59 rmoveto
          230 56 callsubr
          vlineto
          endchar
        </CharString>
        <CharString name="Eacute">
          -105 562 817 30 callsubr
          -146 -610 rmoveto
          230 56 callsubr
          vlineto
          endchar
        </CharString>
        <CharString name="Ecaron">
          -105 409 669 -16 callsubr
          -10 -380 rmoveto
          56 callsubr
          -323 hlineto
          endchar
        </CharString>
        <CharString name="Ecircumflex">
          -105 324 762 rmoveto
          43 callgsubr
          -175 -152 rlineto
          154 hlineto
          20 -380 rmoveto
          56 callsubr
          -323 hlineto
          endchar
        </CharString>
        <CharString name="Edieresis">
          -72 550 778 337 callsubr
          -286 109 175 callgsubr
          -17 -610 rmoveto
          230 56 callsubr
          vlineto
          endchar
        </CharString>
        <CharString name="Edotaccent">
          -105 418 783 300 callsubr
          -171 -611 rmoveto
          230 56 callsubr
          vlineto
          endchar
        </CharString>
        <CharString name="Egrave">
          -105 393 669 128 callgsubr
          -14 -610 rmoveto
          230 56 callsubr
          vlineto
          endchar
        </CharString>
        <CharString name="Emacron">
          -105 539 727 272 callsubr
          -292 -610 rmoveto
          230 56 callsubr
          vlineto
          endchar
        </CharString>
        <CharString name="Eogonek">
          -105 432 297 callsubr
          -1 46 -323 230 269 59 -269 215 310 59 -477 -622 338 110 callsubr
          hlineto
          endchar
        </CharString>
        <CharString name="Eth">
          14 493 133 callgsubr
        </CharString>
        <CharString name="Euro">
          -2 660 403 rmoveto
          140 -57 callgsubr
          -389 75 callgsubr
          -138 -84 -59 84 -69 -84 -59 84 -139 -74 callsubr
          389 -54 callsubr
          139 -162 -128 -12 callgsubr
          -161 -68 callgsubr
          128 137 59 -137 69 137 59 -137 127 -43 callsubr
          161 -60 callsubr
          -129 vlineto
          endchar
        </CharString>
        <CharString name="F">
          -125 559 368 callgsubr
          -477 -622 167 265 271 59 -271 239 vlineto
          endchar
        </CharString>
        <CharString name="G">
          -23 623 423 rmoveto
          120 -57 callgsubr
          -391 -6 callsubr
          391 -54 callsubr
          241 -283 -59 122 -171 -12 callgsubr
          -164 -68 callgsubr
          442 -43 callsubr
          163 -60 callsubr
          -109 vlineto
          endchar
        </CharString>
        <CharString name="Gbreve">
          -29 497 669 60 callsubr
          431 -246 rmoveto
          120 -57 callgsubr
          -391 -6 callsubr
          391 -54 callsubr
          241 -283 -59 122 -171 -12 callgsubr
          -164 -68 callgsubr
          442 -43 callsubr
          163 -60 callsubr
          -109 vlineto
          endchar
        </CharString>
        <CharString name="H">
          49 517 3 callgsubr
          -281 -273 281 -162 -622 162 282 273 -282 162 622 vlineto
          endchar
        </CharString>
        <CharString name="I">
          -366 90 3 callgsubr
          -622 166 622 vlineto
          endchar
        </CharString>
        <CharString name="Iacute">
          174 callsubr
          -143 47 77 callsubr
          endchar
        </CharString>
        <CharString name="Icircumflex">
          174 callsubr
          -330 48 rmoveto
          154 hlineto
          97 93 43 callgsubr
          endchar
        </CharString>
        <CharString name="Idieresis">
          174 callsubr
          -312 155 rmoveto
          -108 174 108 vlineto
          112 hmoveto
          -108 175 108 vlineto
          endchar
        </CharString>
        <CharString name="Idotaccent">
          -393 80 546 rmoveto
          -546 166 546 vlineto
          -167 160 rmoveto
          -113 166 113 vlineto
          endchar
        </CharString>
        <CharString name="Igrave">
          174 callsubr
          -162 195 168 callsubr
        </CharString>
        <CharString name="Imacron">
          174 callsubr
          -297 47 296 callgsubr
          endchar
        </CharString>
        <CharString name="Iogonek">
          -381 111 308 callsubr
          89 2 622 -166 -622 11 110 callsubr
          hlineto
          endchar
        </CharString>
        <CharString name="J">
          -92 31 232 rmoveto
          -153 -74 callsubr
          357 176 callgsubr
          -162 -532 -12 callgsubr
          -129 -68 callgsubr
          142 vlineto
          endchar
        </CharString>
        <CharString name="K">
          -4 502 3 callgsubr
          277 callgsubr
          -598 hmoveto
          -622 158 622 vlineto
          endchar
        </CharString>
        <CharString name="L">
          -147 244 59 220 callgsubr
        </CharString>
        <CharString name="Lacute">
          -153 405 817 30 callsubr
          6 -610 220 callgsubr
        </CharString>
        <CharString name="Lcaron">
          -153 237 670 -16 callsubr
          157 -611 220 callgsubr
        </CharString>
        <CharString name="Lslash">
          -141 248 59 rmoveto
          235 vlineto
          160 53 rlineto
          65 vlineto
          -160 -53 rlineto
          263 -162 -317 vlineto
          -122 -41 rlineto
          -65 vlineto
          122 41 rlineto
          -240 462 59 vlineto
          endchar
        </CharString>
        <CharString name="M">
          190 504 135 rmoveto
          171 333 rlineto
          -468 145 622 -173 vlineto
          -199 -389 -193 389 rlineto
          -173 -622 145 467 hlineto
          167 -332 rlineto
          endchar
        </CharString>
        <CharString name="N">
          25 506 131 callgsubr
          endchar
        </CharString>
        <CharString name="NULL">
          -712 endchar
        </CharString>
        <CharString name="Nacute">
          22 307 668 77 callsubr
          59 -194 226 callgsubr
        </CharString>
        <CharString name="Ncaron">
          22 294 669 rmoveto
          152 hlineto
          176 151 rlineto
          -155 hlineto
          -97 -93 -97 93 rlineto
          -154 hlineto
          385 -198 226 callgsubr
        </CharString>
        <CharString name="Ntilde">
          22 504 131 callgsubr
          -378 124 rmoveto
          -10 callgsubr
          56 vlineto
          13 6 8 13 vhcurveto
          endchar
        </CharString>
        <CharString name="O">
          -17 621 108 callsubr
          endchar
        </CharString>
        <CharString name="OE">
          267 466 223 callgsubr
          -168 -68 callgsubr
          442 -43 callsubr
          168 -60 callsubr
          164 -473 rmoveto
          230 254 59 -254 215 290 59 -412 -13 vlineto
          8 -16 -21 5 -26 hhcurveto
          -292 -6 callsubr
          292 hlineto
          26 21 5 8 16 hvcurveto
          -13 425 59 vlineto
          endchar
        </CharString>
        <CharString name="Oacute">
          -19 290 669 77 callsubr
          192 -274 -45 callsubr
          endchar
        </CharString>
        <CharString name="Ocircumflex">
          -19 96 669 rmoveto
          154 hlineto
          97 93 43 callgsubr
          349 -278 -45 callsubr
          endchar
        </CharString>
        <CharString name="Odieresis">
          -29 620 543 rmoveto
          131 callsubr
          389 -54 callsubr
          -161 11 37 callsubr
          -163 -68 callgsubr
          442 -43 callsubr
          163 292 callsubr
          246 268 callsubr
          175 109 vlineto
          endchar
        </CharString>
        <CharString name="Ograve">
          101 callgsubr
          -181 285 168 callsubr
        </CharString>
        <CharString name="Ohungarumlaut">
          -29 152 3 callgsubr
          2 callgsubr
          389 -54 callsubr
          464 -57 callgsubr
          -82 -90 rmoveto
          -442 -12 callgsubr
          -163 -68 callgsubr
          442 -43 callsubr
          163 -60 callsubr
          -130 297 rmoveto
          -144 -160 362 callsubr
          175 160 rlineto
          87 hmoveto
          -148 -160 362 callsubr
          179 160 rlineto
          endchar
        </CharString>
        <CharString name="Omacron">
          -19 128 670 296 callgsubr
          492 -185 -45 callsubr
          endchar
        </CharString>
        <CharString name="Oslash">
          2 479 88 rmoveto
          -26 -5 -5 -27 vhcurveto
          -182 -68 callgsubr
          3 vlineto
          245 325 rlineto
          -245 118 rmoveto
          -24 callsubr
          182 hlineto
          27 -11 callgsubr
          -9 vlineto
          -245 -325 rlineto
          423 452 rmoveto
          -82 hlineto
          -23 -30 rlineto
          -394 75 callgsubr
          -464 vlineto
          -26 6 -20 13 -13 vhcurveto
          -38 -50 rlineto
          83 hlineto
          23 30 rlineto
          389 -54 callsubr
          464 vlineto
          24 -6 19 -11 13 vhcurveto
          endchar
        </CharString>
        <CharString name="Otilde">
          101 callgsubr
          -209 214 rmoveto
          -10 callgsubr
          56 vlineto
          13 6 8 13 vhcurveto
          endchar
        </CharString>
        <CharString name="P">
          -24 481 293 37 callsubr
          -206 301 206 -60 callsubr
          -399 90 rmoveto
          -622 162 203 319 vlineto
          53 26 26 53 hvcurveto
          261 -57 callgsubr
          endchar
        </CharString>
        <CharString name="Q">
          -38 222 532 rmoveto
          -24 callsubr
          167 -60 callsubr
          -442 -12 callgsubr
          -167 -68 callgsubr
          395 -187 rmoveto
          -122 97 rlineto
          36 -54 callsubr
          464 vlineto
          131 callsubr
          177 hlineto
          113 -97 rlineto
          endchar
        </CharString>
        <CharString name="R">
          -5 244 563 45 callgsubr
        </CharString>
        <CharString name="Racute">
          -8 581 816 30 callsubr
          -170 -105 45 callgsubr
        </CharString>
        <CharString name="Rcaron">
          -8 429 668 -16 callsubr
          -35 -105 45 callgsubr
        </CharString>
        <CharString name="S">
          -43 443 90 53 callsubr
        </CharString>
        <CharString name="Sacute">
          -44 280 668 77 callsubr
          25 -726 53 callsubr
        </CharString>
        <CharString name="Scaron">
          -44 261 668 rmoveto
          152 hlineto
          176 151 rlineto
          -155 hlineto
          -97 -93 -97 93 rlineto
          -154 hlineto
          357 -729 53 callsubr
        </CharString>
        <CharString name="T">
          -129 575 622 173 callsubr
        </CharString>
        <CharString name="Tcaron">
          -127 368 668 -16 callsubr
          360 -46 173 callsubr
        </CharString>
        <CharString name="Thorn">
          -24 472 192 37 callsubr
          -196 300 196 -60 callsubr
          -227 90 rmoveto
          102 -161 -622 161 102 309 vlineto
          53 26 26 53 hvcurveto
          260 -57 callgsubr
          endchar
        </CharString>
        <CharString name="U">
          -7 170 callgsubr
          endchar
        </CharString>
        <CharString name="Uacute">
          -5 291 669 77 callsubr
          -193 -195 3 callsubr
          endchar
        </CharString>
        <CharString name="Ucircumflex">
          -5 101 669 rmoveto
          154 hlineto
          97 93 43 callgsubr
          -40 -199 3 callsubr
          endchar
        </CharString>
        <CharString name="Udieresis">
          -5 471 3 callgsubr
          -532 -12 callgsubr
          -173 -68 callgsubr
          532 -161 -543 -74 callsubr
          398 176 callgsubr
          vlineto
          -511 156 286 callsubr
        </CharString>
        <CharString name="Ugrave">
          167 callsubr
          55 727 168 callsubr
        </CharString>
        <CharString name="Uhungarumlaut">
          -19 236 3 callgsubr
          -161 -543 264 callgsubr
          398 176 callgsubr
          -160 -532 -12 callgsubr
          -173 -68 callgsubr
          326 737 rmoveto
          -148 -160 362 callsubr
          179 160 rlineto
          -383 hmoveto
          -144 -160 362 callsubr
          175 160 rlineto
          endchar
        </CharString>
        <CharString name="Umacron">
          167 callsubr
          -102 579 296 callgsubr
          endchar
        </CharString>
        <CharString name="Uogonek">
          -5 470 3 callgsubr
          84 callsubr
          532 -162 -543 -74 callsubr
          122 110 callsubr
          25 callgsubr
          4 247 callsubr
          5 26 vhcurveto
          139 89 124 176 callgsubr
          vlineto
          endchar
        </CharString>
        <CharString name="Uring">
          -5 534 777 124 callgsubr
          -197 -145 3 callsubr
          endchar
        </CharString>
        <CharString name="V">
          -1 526 3 callgsubr
          -171 -515 -169 515 rlineto
          -163 hlineto
          233 -622 249 callgsubr
          234 622 rlineto
          endchar
        </CharString>
        <CharString name="W">
          386 918 3 callgsubr
          -145 -509 -144 509 rlineto
          -162 hlineto
          -144 -509 -136 509 rlineto
          -164 hlineto
          203 -622 rlineto
          194 hlineto
          128 454 129 -454 rlineto
          194 hlineto
          204 622 rlineto
          endchar
        </CharString>
        <CharString name="X">
          -14 435 322 rmoveto
          221 300 rlineto
          -167 hlineto
          -143 -210 -144 210 rlineto
          -174 hlineto
          230 -310 -238 -312 rlineto
          166 hlineto
          160 224 159 -224 rlineto
          173 hlineto
          endchar
        </CharString>
        <CharString name="Y">
          -34 672 622 206 callsubr
          -419 rlineto
          -203 161 206 vlineto
          endchar
        </CharString>
        <CharString name="Yacute">
          -37 584 817 30 callsubr
          256 -47 206 callsubr
          -419 rlineto
          -203 161 206 vlineto
          endchar
        </CharString>
        <CharString name="Ydieresis">
          -34 289 778 175 callgsubr
          286 109 175 callgsubr
          97 -47 206 callsubr
          -418 rlineto
          -204 161 205 vlineto
          endchar
        </CharString>
        <CharString name="Z">
          -71 595 622 150 callgsubr
        </CharString>
        <CharString name="Zacute">
          -72 570 817 30 callsubr
          193 146 callsubr
        </CharString>
        <CharString name="Zcaron">
          -72 410 669 -16 callsubr
          336 146 callsubr
        </CharString>
        <CharString name="Zdotaccent">
          -72 421 782 300 callsubr
          173 146 callsubr
        </CharString>
        <CharString name="a">
          -61 252 59 -76 callgsubr
        </CharString>
        <CharString name="aacute">
          -64 562 680 30 callsubr
          -145 -473 -76 callgsubr
        </CharString>
        <CharString name="abreve">
          -64 477 532 60 callsubr
          79 -473 -76 callgsubr
        </CharString>
        <CharString name="acircumflex">
          -64 323 625 rmoveto
          43 callgsubr
          -175 -152 rlineto
          154 hlineto
          22 -473 6 callgsubr
          135 hlineto
          25 11 -9 -23 hvcurveto
          -303 197 callsubr
          36 393 rmoveto
          -55 callgsubr
          -33 154 485 -154 vlineto
          endchar
        </CharString>
        <CharString name="acute">
          -65 168 506 77 callsubr
          endchar
        </CharString>
        <CharString name="adieresis">
          -64 561 641 175 callgsubr
          -287 109 337 callsubr
          -26 -473 -76 callgsubr
        </CharString>
        <CharString name="ae">
          285 742 426 rmoveto
          -31 callgsubr
          -117 -211 117 -43 callsubr
          -341 -367 347 callsubr
          82 vlineto
          189 43 rlineto
          -126 vlineto
          -24 -8 -6 -24 vhcurveto
          540 160 rmoveto
          3 6 184 -57 callgsubr
          -274 hlineto
          -63 -16 -15 -22 -6 hvcurveto
          22 -8 -22 15 -64 hhcurveto
          -247 75 callgsubr
          -100 155 90 -43 callsubr
          126 hlineto
          24 8 -6 -25 hvcurveto
          -117 vlineto
          -344 -78 rlineto
          -122 -74 callsubr
          247 hlineto
          64 22 15 22 8 hvcurveto
          -22 6 16 -15 63 hhcurveto
          272 -54 callsubr
          69 -151 -58 -12 callgsubr
          -147 340 callgsubr
          vlineto
          endchar
        </CharString>
        <CharString name="agrave">
          -64 413 532 128 callgsubr
          -33 -473 -76 callgsubr
        </CharString>
        <CharString name="amacron">
          -64 534 594 272 callsubr
          -286 -477 -76 callgsubr
        </CharString>
        <CharString name="ampersand">
          149 249 59 347 callsubr
          72 vlineto
          28 10 13 29 11 vhcurveto
          61 22 212 -177 rlineto
          -239 473 rmoveto
          -24 callsubr
          141 -60 callsubr
          -98 vlineto
          -34 -19 -16 -46 -16 vhcurveto
          -62 -23 rlineto
          -55 46 -21 19 43 vvcurveto
          543 -498 rmoveto
          -65 55 rlineto
          27 13 14 27 39 vvcurveto
          145 -126 -144 vlineto
          -9 vlineto
          -241 201 92 34 rlineto
          74 27 39 32 73 vvcurveto
          95 -57 callgsubr
          -353 75 callgsubr
          -98 vlineto
          -63 37 -26 68 -56 vhcurveto
          -81 -30 rlineto
          -72 -25 -25 -23 -58 vvcurveto
          -85 -74 callsubr
          457 hlineto
          54 -45 rlineto
          endchar
        </CharString>
        <CharString name="aogonek">
          -64 248 59 6 callgsubr
          135 hlineto
          25 11 -9 -23 hvcurveto
          -303 197 callsubr
          50 -247 91 callgsubr
          89 1 485 -154 -33 hlineto
          -55 callgsubr
          -67 -53 vlineto
          160 callsubr
        </CharString>
        <CharString name="approxequal">
          88 583 390 rmoveto
          -60 vlineto
          -30 -11 -9 -34 vhcurveto
          -101 -44 99 -118 hhcurveto
          -133 hlineto
          -54 -24 -27 -50 hvcurveto
          -115 153 60 vlineto
          30 10 8 35 vhcurveto
          104 344 callgsubr
          115 vlineto
          endchar
        </CharString>
        <CharString name="aring">
          -64 246 630 47 callsubr
          31 -474 -76 callgsubr
        </CharString>
        <CharString name="asciicircum">
          -60 234 668 rmoveto
          -200 -340 rlineto
          146 hlineto
          146 252 145 -252 rlineto
          147 hlineto
          -200 340 rlineto
          endchar
        </CharString>
        <CharString name="asciitilde">
          83 259 264 rmoveto
          105 344 callgsubr
          91 -152 -61 vlineto
          -29 -11 -10 -34 vhcurveto
          -101 -44 100 -118 hhcurveto
          -133 hlineto
          -54 -24 -27 -51 hvcurveto
          -91 153 61 vlineto
          29 10 9 34 vhcurveto
          endchar
        </CharString>
        <CharString name="asterisk">
          -183 208 658 rmoveto
          -62 vlineto
          -29 5 -27 7 -22 vhcurveto
          -20 15 -24 14 -27 10 -59 19 rcurveline
          -37 -113 59 -19 26 -8 27 -4 25 -1 rlinecurve
          -20 -13 -22 -19 -17 -23 -36 -51 rcurveline
          95 -69 37 50 16 23 12 26 7 21 rlinecurve
          7 -22 12 -27 16 -24 37 -51 rcurveline
          96 71 -37 49 -16 24 -21 18 -18 14 rlinecurve
          24 -1 28 3 28 9 60 19 rcurveline
          -38 113 -58 -20 -27 -9 -24 -13 -19 -14 rlinecurve
          8 23 6 28 30 vvcurveto
          62 vlineto
          endchar
        </CharString>
        <CharString name="at">
          428 409 426 rmoveto
          -46 -23 -23 -46 hvcurveto
          -210 vlineto
          -46 23 -23 46 vhcurveto
          188 hlineto
          29 21 10 26 4 hvcurveto
          -55 351 vlineto
          46 23 23 46 hvcurveto
          366 vlineto
          46 -23 23 -46 vhcurveto
          -856 hlineto
          -47 -22 -23 -46 hvcurveto
          -496 vlineto
          -46 22 -23 47 vhcurveto
          718 60 -630 hlineto
          -23 -4 4 23 hvcurveto
          459 vlineto
          23 4 5 23 vhcurveto
          680 hlineto
          23 4 -5 -23 hvcurveto
          -330 vlineto
          -23 -4 -4 -23 vhcurveto
          -137 308 -130 -27 hlineto
          18 -8 -17 9 -25 hhcurveto
          -127 -86 rmoveto
          22 4 5 23 vhcurveto
          118 hlineto
          21 10 -7 -20 1 hvcurveto
          -176 vlineto
          -20 -1 -10 -7 -21 hhcurveto
          -118 hlineto
          -23 -4 4 23 hvcurveto
          endchar
        </CharString>
        <CharString name="atilde">
          -64 210 588 rmoveto
          13 6 8 13 vhcurveto
          -10 callgsubr
          vlineto
          38 -473 -76 callgsubr
        </CharString>
        <CharString name="b">
          -61 430 223 callgsubr
          -134 hlineto
          -25 -10 9 23 hvcurveto
          25 -1 247 1 31 vlineto
          23 10 354 callgsubr
          -144 90 293 callgsubr
          217 -155 -669 155 33 vlineto
          -22 8 17 -11 32 hhcurveto
          220 332 callgsubr
          endchar
        </CharString>
        <CharString name="backslash">
          -261 -77 699 rmoveto
          420 -835 rlineto
          138 hlineto
          -420 835 rlineto
          endchar
        </CharString>
        <CharString name="bar">
          -399 84 763 rmoveto
          -906 145 906 vlineto
          endchar
        </CharString>
        <CharString name="braceleft">
          -290 320 583 rmoveto
          49 8 29 43 vhcurveto
          79 59 -111 hlineto
          -122 -58 -38 -121 hvcurveto
          -183 vlineto
          -69 -26 -30 -66 vhcurveto
          -14 -59 14 hlineto
          66 26 -29 -68 hvcurveto
          -186 vlineto
          -121 58 -37 122 vhcurveto
          111 59 -79 hlineto
          -43 -8 29 48 hvcurveto
          209 vlineto
          69 -29 51 -59 4 vhcurveto
          59 5 29 49 71 vvcurveto
          endchar
        </CharString>
        <CharString name="braceright">
          -281 111 373 rmoveto
          -71 29 -49 59 -5 vhcurveto
          -59 -4 -29 -51 -69 vvcurveto
          -209 vlineto
          -48 -8 -29 -43 vhcurveto
          -80 -59 112 hlineto
          122 58 37 121 hvcurveto
          186 vlineto
          68 26 29 65 vhcurveto
          14 59 -14 hlineto
          -65 -26 30 69 hvcurveto
          183 vlineto
          121 -58 38 -122 vhcurveto
          -112 -59 80 hlineto
          43 8 -29 -49 hvcurveto
          endchar
        </CharString>
        <CharString name="bracketleft">
          -359 390 661 rmoveto
          59 -310 -940 310 59 -148 822 vlineto
          endchar
        </CharString>
        <CharString name="bracketright">
          -359 274 720 rmoveto
          -311 -59 149 -822 -149 -59 311 hlineto
          endchar
        </CharString>
        <CharString name="breve">
          -65 418 652 rmoveto
          -53 -12 callgsubr
          -128 -68 callgsubr
          53 -138 -63 -74 callsubr
          308 hlineto
          348 callgsubr
          vlineto
          endchar
        </CharString>
        <CharString name="brokenbar">
          -410 79 251 rmoveto
          -394 144 394 vlineto
          119 vmoveto
          393 -144 -393 vlineto
          endchar
        </CharString>
        <CharString name="bullet">
          -225 243 451 rmoveto
          -91 -76 -60 -75 -74 76 -61 91 93 75 61 74 75 -75 60 -93 hvcurveto
          endchar
        </CharString>
        <CharString name="c">
          -97 566 316 -5 callgsubr
        </CharString>
        <CharString name="cacute">
          -104 556 680 30 callsubr
          175 -216 -5 callgsubr
        </CharString>
        <CharString name="caron">
          -65 247 502 rmoveto
          152 hlineto
          176 151 rlineto
          -155 hlineto
          -97 -93 -97 93 rlineto
          -154 hlineto
          endchar
        </CharString>
        <CharString name="ccaron">
          -104 384 532 -16 callsubr
          330 -216 -5 callgsubr
        </CharString>
        <CharString name="ccedilla">
          -104 242 180 callsubr
          320 364 -5 callgsubr
        </CharString>
        <CharString name="cedilla">
          -65 312 180 callsubr
          endchar
        </CharString>
        <CharString name="cent">
          -104 562 316 rmoveto
          90 -57 callgsubr
          -93 77 -156 -77 -92 -27 callsubr
          92 -78 156 78 93 294 callgsubr
          -150 -77 -12 callgsubr
          -132 29 callgsubr
          132 -60 callsubr
          -79 vlineto
          endchar
        </CharString>
        <CharString name="circumflex">
          -65 72 506 rmoveto
          154 hlineto
          97 93 43 callgsubr
          endchar
        </CharString>
        <CharString name="colon">
          -428 58 317 rmoveto
          -149 168 149 vlineto
          endchar
        </CharString>
        <CharString name="comma">
          -436 58 -139 rmoveto
          335 callsubr
        </CharString>
        <CharString name="commaaccent">
          -65 244 -251 136 callsubr
        </CharString>
        <CharString name="copyright">
          352 995 340 rmoveto
          180 -69 102 -216 vhcurveto
          -356 hlineto
          -216 -69 -102 -180 hvcurveto
          -62 vlineto
          -181 69 -97 216 vhcurveto
          356 hlineto
          216 69 97 181 hvcurveto
          -617 -218 rmoveto
          -132 -44 72 137 hvcurveto
          80 vlineto
          136 44 79 132 vhcurveto
          308 hlineto
          132 44 -79 -136 hvcurveto
          -80 vlineto
          -137 -44 -72 -132 vhcurveto
          -73 180 37 callsubr
          -98 -68 callgsubr
          149 -43 callsubr
          98 -60 callsubr
          -34 117 45 -57 callgsubr
          -236 75 callgsubr
          -171 -74 callsubr
          236 -54 callsubr
          45 -117 vlineto
          endchar
        </CharString>
        <CharString name="currency">
          54 311 168 rmoveto
          -60 -21 7 61 hvcurveto
          113 vlineto
          61 21 18 60 vhcurveto
          148 hlineto
          59 21 -18 -61 hvcurveto
          -113 vlineto
          -61 -21 -7 -59 vhcurveto
          202 193 rmoveto
          22 -3 19 -6 17 vhcurveto
          53 52 -84 86 -73 -72 rlineto
          1 -12 -14 1 -14 hhcurveto
          -247 hlineto
          -15 -15 -1 -1 -12 hvcurveto
          -74 72 -84 -86 56 -55 rlineto
          -6 -16 -2 -18 -21 vvcurveto
          -125 vlineto
          -21 2 -19 6 -16 vhcurveto
          -56 -55 84 -85 73 71 rlineto
          -1 13 14 -1 16 hhcurveto
          247 hlineto
          15 13 1 1 12 hvcurveto
          73 -71 84 85 -53 52 rlineto
          6 17 3 20 22 vvcurveto
          endchar
        </CharString>
        <CharString name="d">
          -61 252 59 6 callgsubr
          135 hlineto
          25 11 -9 -23 hvcurveto
          -303 197 callsubr
          36 610 rmoveto
          -217 -49 callgsubr
          -33 154 669 vlineto
          endchar
        </CharString>
        <CharString name="dagger">
          -96 559 467 rmoveto
          -169 155 -161 -155 -173 -59 173 -533 161 533 169 hlineto
          endchar
        </CharString>
        <CharString name="daggerdbl">
          -78 568 388 rmoveto
          59 -169 175 -161 -175 -173 -59 173 -298 -173 -59 173 -180 161 180 169 59 -169 298 vlineto
          endchar
        </CharString>
        <CharString name="dcaron">
          -38 419 456 rmoveto
          20 -9 -18 9 -29 hhcurveto
          -221 -27 callsubr
          221 hlineto
          29 18 9 20 9 hvcurveto
          -29 154 669 -154 vlineto
          232 hmoveto
          366 callgsubr
          -528 -610 6 callgsubr
          134 hlineto
          25 11 -9 -23 hvcurveto
          -303 197 callsubr
          endchar
        </CharString>
        <CharString name="dcroat">
          -61 252 59 6 callgsubr
          134 hlineto
          25 11 -9 -23 hvcurveto
          -303 197 callsubr
          260 540 rmoveto
          -69 70 -155 -70 -184 -59 184 -85 hlineto
          20 -8 -17 10 -31 hhcurveto
          -221 -27 callsubr
          221 hlineto
          31 17 10 20 8 hvcurveto
          -30 155 540 69 vlineto
          endchar
        </CharString>
        <CharString name="degree">
          -105 549 544 rmoveto
          53 -26 25 -52 vhcurveto
          -334 hlineto
          -52 -26 -25 -53 hvcurveto
          -148 vlineto
          -53 26 -25 52 vhcurveto
          334 hlineto
          52 26 25 53 hvcurveto
          -146 10 37 callsubr
          -134 -68 callgsubr
          128 vlineto
          26 5 5 26 321 callgsubr
          endchar
        </CharString>
        <CharString name="dieresis">
          -65 379 640 268 callsubr
          174 109 vlineto
          endchar
        </CharString>
        <CharString name="divide">
          -22 365 callsubr
          212 150 rmoveto
          -90 160 90 vlineto
          -160 -311 rmoveto
          -90 160 90 vlineto
          endchar
        </CharString>
        <CharString name="dollar">
          -44 252 343 347 callsubr
          158 -43 callsubr
          159 -60 callsubr
          -96 158 107 -57 callgsubr
          -112 92 -156 -92 -112 126 callsubr
          273 -60 callsubr
          -163 -12 callgsubr
          -160 -68 callgsubr
          96 -159 -107 -74 callsubr
          110 -91 156 91 115 -54 callsubr
          185 -57 callgsubr
          endchar
        </CharString>
        <CharString name="dotaccent">
          -65 242 526 rmoveto
          166 113 -166 hlineto
          endchar
        </CharString>
        <CharString name="dotlessi">
          -397 80 485 rmoveto
          -485 155 485 vlineto
          endchar
        </CharString>
        <CharString name="dvDDH_DDHA">
          77 666 97 callgsubr
          143 59 -829 -59 519 -78 -331 vlineto
          -53 -24 -25 -53 hvcurveto
          -205 vlineto
          -42 18 -17 35 callsubr
          -18 -40 vvcurveto
          -200 304 callgsubr
          457 349 callgsubr
          73 -51 callgsubr
          -164 -61 54 -48 callgsubr
          -43 vlineto
          -25 259 callgsubr
          -224 346 callsubr
          189 -102 callgsubr
          334 -86 callgsubr
          71 117 callsubr
          -164 -61 54 -48 callgsubr
          -42 -66 callsubr
          -224 hlineto
          -26 -7 -97 callgsubr
          189 vlineto
          25 7 8 26 vhcurveto
          endchar
        </CharString>
        <CharString name="dvDD_GA">
          36 255 98 rmoveto
          -71 -40 rlineto
          -10 3 -6 3 3 vvcurveto
          -18 vlineto
          -31 -17 rlineto
          -4 vlineto
          -2 -14 -13 -1 -6 hhcurveto
          -23 -47 rlineto
          -30 14 -40 29 vhcurveto
          241 hlineto
          24 9 42 24 hvcurveto
          -94 64 rlineto
          -1 12 0 11 3 vvcurveto
          332 362 rmoveto
          137 133 59 -788 -59 488 -78 -307 174 callgsubr
          308 hlineto
          26 6 -7 -26 hvcurveto
          -122 107 callsubr
          -68 -59 44 -249 149 249 hlineto
          51 1 23 24 52 vvcurveto
          151 266 callsubr
        </CharString>
        <CharString name="dvMatraI.a33">
          -86 callsubr
          1947 -17 callgsubr
          -2191 -100 callsubr
        </CharString>
        <CharString name="dvMatraI.a34">
          -86 callsubr
          1994 -17 callgsubr
          -2238 -100 callsubr
        </CharString>
        <CharString name="dvMatraI.a35">
          -86 callsubr
          2042 -17 callsubr
          -2286 -100 callsubr
        </CharString>
        <CharString name="dvMatraI.a36">
          -86 callsubr
          2088 -17 callgsubr
          -2332 -100 callsubr
        </CharString>
        <CharString name="dvMatraI.a37">
          -86 callsubr
          2136 -10 callsubr
          -2380 -100 callsubr
        </CharString>
        <CharString name="dvMatraI.a38">
          -86 callsubr
          2182 -17 callgsubr
          -2426 -100 callsubr
        </CharString>
        <CharString name="dvMatraI.a39">
          -86 callsubr
          2230 -10 callsubr
          -2474 -100 callsubr
        </CharString>
        <CharString name="dvMatraI.a40">
          -86 callsubr
          2277 -10 callsubr
          -2521 -100 callsubr
        </CharString>
        <CharString name="dvMatraI.a41">
          -86 callsubr
          2323 -17 callgsubr
          -2567 -100 callsubr
        </CharString>
        <CharString name="dvMatraI.a42">
          -86 callsubr
          2371 -10 callsubr
          -2615 -100 callsubr
        </CharString>
        <CharString name="dvMatraI.a43">
          -86 callsubr
          2418 -10 callsubr
          -2662 -100 callsubr
        </CharString>
        <CharString name="dvMatraI.a44">
          -86 callsubr
          2465 -17 callgsubr
          -2709 -100 callsubr
        </CharString>
        <CharString name="dvMatraI.a45">
          -86 callsubr
          2512 -10 callsubr
          -2756 -100 callsubr
        </CharString>
        <CharString name="dvMatraI.a46">
          -86 callsubr
          2559 -17 callsubr
          -2803 -100 callsubr
        </CharString>
        <CharString name="dvMatraI.a47">
          -86 callsubr
          2606 -17 callsubr
          -2850 -100 callsubr
        </CharString>
        <CharString name="dvMatraI.a48">
          -86 callsubr
          2653 -17 callgsubr
          -2897 -100 callsubr
        </CharString>
        <CharString name="dvMatraI.a49">
          392 3 callgsubr
          -122 120 23 callsubr
          2699 -17 callsubr
          -2943 -100 callsubr
        </CharString>
        <CharString name="dvMatraI.a50">
          3246 669 rmoveto
          96 callgsubr
          -2990 227 callgsubr
          -133 -122 -80 callsubr
          59 -122 120 -103 callsubr
          2746 -48 callgsubr
          -73 vlineto
          endchar
        </CharString>
        <CharString name="dvNG_GA">
          167 717 301 rmoveto
          115 99 -115 hlineto
          -737 222 rmoveto
          -59 488 -78 -307 -15 callsubr
          -84 -105 callgsubr
          307 32 callgsubr
          -118 187 callsubr
          -182 135 callgsubr
          25 hvcurveto
          73 -167 -86 -105 callgsubr
          3 -105 283 callsubr
          -37 -59 142 -86 callgsubr
          119 128 -249 149 249 vlineto
          51 1 23 24 52 vvcurveto
          146 -51 callgsubr
          -307 17 callgsubr
          56 -26 callsubr
          352 137 264 59 hlineto
          endchar
        </CharString>
        <CharString name="dvNG_MA">
          398 787 403 rmoveto
          -103 -99 103 hlineto
          64 -306 rmoveto
          -214 237 hlineto
          -32 callsubr
          -280 1 callsubr
          50 -14 callgsubr
          343 137 228 hlineto
          279 59 rmoveto
          -1150 -59 480 -78 -302 -34 callgsubr
          -78 -105 callgsubr
          283 hlineto
          -55 callsubr
          -99 107 callsubr
          -158 hlineto
          -26 -7 -97 callgsubr
          64 -166 -78 -105 callgsubr
          320 -170 156 78 214 -137 157 761 259 callsubr
        </CharString>
        <CharString name="dvNY_CA">
          834 1566 3 callgsubr
          -1586 -59 1297 -392 hlineto
          -26 -8 -8 -26 vhcurveto
          -237 hlineto
          36 callgsubr
          -75 -195 90 vlineto
          -3 callsubr
          104 195 -104 253 callsubr
        </CharString>
        <CharString name="dvSHA_MatraVocalicR">
          335 248 530 rmoveto
          26 6 39 callsubr
          141 32 callgsubr
          -153 vlineto
          -38 -35 rlineto
          -135 325 callsubr
          697 -330 rmoveto
          518 122 59 -288 -280 -183 vlineto
          11 6 4 13 20 vvcurveto
          164 257 callsubr
          -185 -15 callgsubr
          185 hlineto
          -215 -193 rlineto
          189 hlineto
          214 193 rlineto
          238 -179 -134 hlineto
          208 callgsubr
          338 59 -207 hlineto
          185 callgsubr
          endchar
        </CharString>
        <CharString name="dvSH_VA.aSimp">
          790 179 622 rmoveto
          -101 callgsubr
          942 hmoveto
          -776 -59 487 -392 hlineto
          -26 -8 -8 -26 vhcurveto
          -177 67 callsubr
          92 callsubr
        </CharString>
        <CharString name="dvTTH_TTHA">
          81 543 262 rmoveto
          165 callgsubr
          -228 17 callgsubr
          133 -103 callsubr
          228 -48 callgsubr
          -519 vmoveto
          -25 31 callgsubr
          -228 hlineto
          -26 -7 -97 callgsubr
          132 -102 callgsubr
          228 -48 callgsubr
          270 555 rmoveto
          59 -833 -59 336 -78 -151 177 callsubr
          -160 -15 callgsubr
          151 -73 -151 74 callsubr
          -158 -15 callgsubr
          463 -86 callgsubr
          158 -51 callgsubr
          -150 73 150 -86 callgsubr
          160 -51 callgsubr
          -150 78 hlineto
          endchar
        </CharString>
        <CharString name="dvTT_GA">
          55 654 97 callgsubr
          133 59 -807 -59 508 -78 -320 -15 callsubr
          -325 -105 callgsubr
          4 -105 hlineto
          -66 callgsubr
          -38 -59 141 -86 callgsubr
          119 132 -249 147 249 8 190 callgsubr
          -167 -158 vlineto
          -25 238 callsubr
          -195 135 callgsubr
          25 hvcurveto
          298 238 callgsubr
        </CharString>
        <CharString name="dvT_KH_NA">
          1781 1896 169 rmoveto
          -25 31 callgsubr
          -168 -84 callsubr
          201 hlineto
          617 196 rmoveto
          -2533 -59 849 -243 hlineto
          280 callsubr
          -494 -34 callgsubr
          -90 callgsubr
          205 129 callgsubr
          506 59 -383 hlineto
          -26 -7 -97 callgsubr
          138 259 vlineto
          69 callgsubr
          1230 310 callgsubr
          -177 hlineto
          193 callgsubr
          154 -103 callsubr
          154 59 -260 -34 callgsubr
          -181 -105 callgsubr
          287 hlineto
          13 11 341 callsubr
          -31 9 24 -15 41 hhcurveto
          -50 callsubr
        </CharString>
        <CharString name="dvT_S_NA">
          1515 1958 352 callsubr
          -69 -172 -31 callsubr
          907 hlineto
          -328 -394 rmoveto
          -25 31 callgsubr
          -168 -107 callsubr
          201 hlineto
          617 196 rmoveto
          -2267 -59 885 hlineto
          24 callgsubr
          -507 -34 callgsubr
          -90 callgsubr
          218 -42 callgsubr
          564 218 callsubr
        </CharString>
        <CharString name="e">
          -66 221 278 -72 callgsubr
        </CharString>
        <CharString name="eacute">
          -74 566 680 30 callsubr
          -180 -254 -72 callgsubr
        </CharString>
        <CharString name="ecaron">
          -74 398 532 -16 callsubr
          -29 -254 -72 callgsubr
        </CharString>
        <CharString name="ecircumflex">
          -74 326 625 rmoveto
          43 callgsubr
          -175 -152 rlineto
          154 hlineto
          -12 -254 -72 callgsubr
        </CharString>
        <CharString name="edieresis">
          -74 269 641 337 callsubr
          287 109 175 callgsubr
          -414 -47 6 callsubr
          361 316 callgsubr
          -151 340 callgsubr
          365 187 -57 callgsubr
          -286 -207 rmoveto
          117 -43 callsubr
          153 -60 callsubr
          -117 vlineto
          endchar
        </CharString>
        <CharString name="edotaccent">
          -74 411 645 300 callsubr
          -194 -254 -72 callgsubr
        </CharString>
        <CharString name="egrave">
          -74 399 532 128 callgsubr
          -50 -254 -72 callgsubr
        </CharString>
        <CharString name="eight">
          -31 151 3 callgsubr
          -42 callsubr
          -166 vlineto
          -40 19 -22 36 -2 vhcurveto
          -36 -3 -19 -20 -40 vvcurveto
          -171 -74 callsubr
          379 -54 callsubr
          171 vlineto
          40 290 callsubr
          166 -57 callgsubr
          -296 -370 rmoveto
          -24 callsubr
          152 -60 callsubr
          -162 -12 callgsubr
          -152 -68 callgsubr
          214 284 37 callsubr
          -152 -68 callgsubr
          158 -43 callsubr
          152 -60 callsubr
          endchar
        </CharString>
        <CharString name="ellipsis">
          150 58 hmoveto
          357 callgsubr
          293 -128 rmoveto
          357 callgsubr
          289 -128 rmoveto
          357 callgsubr
          endchar
        </CharString>
        <CharString name="emacron">
          -74 540 594 272 callsubr
          -323 -258 -72 callgsubr
        </CharString>
        <CharString name="emdash">
          254 62 262 rmoveto
          837 59 -837 hlineto
          endchar
        </CharString>
        <CharString name="endash">
          -11 62 262 rmoveto
          511 59 -511 hlineto
          endchar
        </CharString>
        <CharString name="eogonek">
          -74 217 278 -13 callsubr
          110 110 callsubr
          25 callgsubr
          4 247 callsubr
          5 26 vhcurveto
          139 89 97 186 callsubr
          -150 -59 -12 callgsubr
          -152 340 callgsubr
          366 142 callgsubr
        </CharString>
        <CharString name="equal">
          4 67 358 rmoveto
          582 101 -582 hlineto
          -298 vmoveto
          582 101 -582 hlineto
          endchar
        </CharString>
        <CharString name="eth">
          -190 456 223 callgsubr
          -164 -68 callgsubr
          196 -43 callsubr
          195 -5 hlineto
          142 214 rmoveto
          60 vlineto
          -115 -28 -32 28 -30 22 -23 14 rlinecurve
          -212 hlineto
          39 -21 59 -34 53 -44 -114 -28 rcurveline
          -60 vlineto
          164 40 26 -30 21 -32 12 -37 rlinecurve
          -292 75 callgsubr
          -218 -74 callsubr
          378 -54 callsubr
          230 vlineto
          80 -36 68 -45 52 vhcurveto
          endchar
        </CharString>
        <CharString name="exclam">
          -382 75 3 callgsubr
          28 -416 rlineto
          126 hlineto
          27 416 rlineto
          -175 -622 rmoveto
          295 callsubr
          endchar
        </CharString>
        <CharString name="exclamdown">
          -382 102 279 rmoveto
          -28 -416 rlineto
          182 hlineto
          -28 416 rlineto
          -147 206 rmoveto
          -131 168 131 vlineto
          endchar
        </CharString>
        <CharString name="f">
          -311 393 608 rmoveto
          61 -204 vlineto
          -42 callsubr
          -105 -72 -59 72 -426 154 426 129 59 -129 92 -43 callsubr
          endchar
        </CharString>
        <CharString name="fi">
          -46 591 485 rmoveto
          -321 92 hlineto
          -24 callsubr
          85 61 -192 273 callsubr
          vlineto
          -156 669 rmoveto
          -95 159 95 vlineto
          endchar
        </CharString>
        <CharString name="five">
          -51 245 379 rmoveto
          184 353 59 -520 -302 339 vlineto
          -31 callgsubr
          -199 -12 callgsubr
          -152 -68 callgsubr
          115 -162 -126 127 callgsubr
          221 -57 callgsubr
          endchar
        </CharString>
        <CharString name="fl">
          -44 437 669 rmoveto
          -184 -167 92 -43 callsubr
          88 61 -195 273 callsubr
          669 vlineto
          endchar
        </CharString>
        <CharString name="florin">
          -187 493 597 rmoveto
          62 -122 vlineto
          -102 -30 -37 -63 -11 hvcurveto
          -12 -74 rlineto
          -104 -59 94 hlineto
          -78 -466 rlineto
          -31 -6 -9 -9 -31 hhcurveto
          -60 -61 121 hlineto
          102 30 37 62 11 hvcurveto
          79 468 rlineto
          117 59 -107 hlineto
          12 73 rlineto
          31 5 10 8 30 hhcurveto
          endchar
        </CharString>
        <CharString name="four">
          -25 671 160 rmoveto
          -104 168 -152 -168 -222 hlineto
          284 462 rlineto
          -166 hlineto
          -280 -444 rlineto
          -77 384 -101 152 101 104 vlineto
          endchar
        </CharString>
        <CharString name="fraction">
          -167 435 3 callgsubr
          -419 -622 rlineto
          127 hlineto
          420 622 rlineto
          endchar
        </CharString>
        <CharString name="g">
          -66 252 59 5 callsubr
        </CharString>
        <CharString name="gbreve">
          -69 481 532 60 callsubr
          75 -473 5 callsubr
        </CharString>
        <CharString name="germandbls">
          163 340 157 rmoveto
          -78 -74 callsubr
          336 -54 callsubr
          132 -57 callgsubr
          -232 -68 callgsubr
          51 -43 callsubr
          186 hlineto
          48 26 24 48 hvcurveto
          68 -57 callgsubr
          -541 75 callgsubr
          -543 157 530 -26 callsubr
          315 hlineto
          26 5 -6 -26 hvcurveto
          -41 vlineto
          -23 -5 -5 -28 vhcurveto
          -168 hlineto
          -50 -27 -25 -54 hvcurveto
          -71 -74 callsubr
          229 -60 callsubr
          -111 -12 callgsubr
          -125 -68 callgsubr
          67 vlineto
          endchar
        </CharString>
        <CharString name="grave">
          -159 326 654 168 callsubr
        </CharString>
        <CharString name="greater">
          -15 531 312 rmoveto
          -484 -86 rlineto
          -109 vlineto
          614 141 rlineto
          110 vlineto
          -614 135 rlineto
          -108 vlineto
          endchar
        </CharString>
        <CharString name="greaterequal">
          18 59 103 rmoveto
          623 86 -623 hlineto
          506 169 rmoveto
          -506 -55 rlineto
          -97 vlineto
          622 97 rlineto
          112 vlineto
          -622 94 rlineto
          -96 vlineto
          endchar
        </CharString>
        <CharString name="guillemotleft">
          -69 490 403 rmoveto
          -199 hlineto
          -134 -151 134 -152 rlineto
          199 hlineto
          -132 151 rlineto
          endchar
        </CharString>
        <CharString name="guillemotright">
          -79 345 403 rmoveto
          -199 hlineto
          133 -152 -133 -151 rlineto
          199 hlineto
          134 152 rlineto
          endchar
        </CharString>
        <CharString name="guilsinglleft">
          -348 175 100 rmoveto
          163 hlineto
          -132 151 132 152 rlineto
          -163 hlineto
          -133 -151 rlineto
          endchar
        </CharString>
        <CharString name="guilsinglright">
          -350 328 252 rmoveto
          -133 151 rlineto
          -163 hlineto
          133 -152 -133 -151 rlineto
          163 hlineto
          endchar
        </CharString>
        <CharString name="h">
          -60 286 485 293 callgsubr
          217 -155 -669 155 365 1 29 vlineto
          23 10 9 25 vhcurveto
          135 -60 callsubr
          -395 154 182 callsubr
        </CharString>
        <CharString name="hungarumlaut">
          -65 459 665 rmoveto
          -148 -159 362 callsubr
          179 159 rlineto
          -383 hmoveto
          -144 -159 362 callsubr
          175 159 rlineto
          endchar
        </CharString>
        <CharString name="hyphen">
          -290 58 242 rmoveto
          306 59 -306 hlineto
          endchar
        </CharString>
        <CharString name="i">
          -398 189 callsubr
          -3 566 rmoveto
          161 104 -161 hlineto
          endchar
        </CharString>
        <CharString name="iacute">
          -397 189 callsubr
          18 532 77 callsubr
          endchar
        </CharString>
        <CharString name="icircumflex">
          -397 189 callsubr
          -172 532 rmoveto
          154 hlineto
          97 93 43 callgsubr
          endchar
        </CharString>
        <CharString name="idieresis">
          -397 189 callsubr
          135 642 268 callsubr
          174 109 vlineto
          endchar
        </CharString>
        <CharString name="igrave">
          -397 189 callsubr
          -2 680 168 callsubr
        </CharString>
        <CharString name="imacron">
          -397 189 callsubr
          -137 536 296 callgsubr
          endchar
        </CharString>
        <CharString name="infinity">
          252 319 186 rmoveto
          82 25 11 62 45 hvcurveto
          14 17 23 -27 rlineto
          -52 45 23 -11 75 hhcurveto
          181 hlineto
          55 24 27 50 hvcurveto
          160 vlineto
          49 -24 27 -55 vhcurveto
          -196 hlineto
          -71 -17 -15 -56 -42 hvcurveto
          -23 -30 -34 40 rlineto
          43 -36 -19 18 -65 hhcurveto
          -198 hlineto
          -54 -24 -27 -49 hvcurveto
          -160 vlineto
          -50 24 -27 54 vhcurveto
          448 215 rmoveto
          21 17 11 12 25 hhcurveto
          125 hlineto
          32 4 -10 -23 hvcurveto
          -116 vlineto
          -25 -4 -8 -32 vhcurveto
          -117 hlineto
          -26 -15 12 16 -14 hvcurveto
          -53 59 rlineto
          -135 -52 rmoveto
          -21 -17 -20 -14 -30 hhcurveto
          -122 hlineto
          -33 -4 8 25 hvcurveto
          115 vlineto
          24 4 9 33 vhcurveto
          116 hlineto
          28 13 -13 -21 17 hvcurveto
          52 -63 rlineto
          endchar
        </CharString>
        <CharString name="integral">
          -258 305 609 rmoveto
          -24 callsubr
          82 62 -195 75 callgsubr
          -659 vlineto
          -26 -1 -4 -5 -26 hhcurveto
          -81 -62 194 -54 callsubr
          endchar
        </CharString>
        <CharString name="iogonek">
          -397 238 670 rmoveto
          -161 -104 161 hlineto
          -143 -754 91 callgsubr
          89 1 485 -155 -485 1 110 callsubr
          hlineto
          endchar
        </CharString>
        <CharString name="itfLogo">
          902 1299 220 rmoveto
          356 callsubr
          38 vmoveto
          356 callsubr
          -232 312 callsubr
          -232 -182 rmoveto
          193 182 -193 hlineto
          -231 312 callsubr
          -232 -182 rmoveto
          356 callsubr
          -231 312 callsubr
          endchar
        </CharString>
        <CharString name="itfStar">
          -42 660 441 rmoveto
          -258 -8 -66 243 -69 -243 -257 8 218 -139 -94 -242 202 165 201 -165 -92 242 rlineto
          endchar
        </CharString>
        <CharString name="j">
          -403 80 -51 37 callsubr
          -83 -59 190 -54 callsubr
          547 -155 vlineto
          -3 81 rmoveto
          161 104 -161 hlineto
          endchar
        </CharString>
        <CharString name="k">
          -73 74 hmoveto
          155 669 -155 hlineto
          546 -184 267 callgsubr
        </CharString>
        <CharString name="l">
          -393 237 hmoveto
          358 callgsubr
          endchar
        </CharString>
        <CharString name="lacute">
          -397 98 716 77 callsubr
          -1 -864 rmoveto
          358 callgsubr
          endchar
        </CharString>
        <CharString name="lcaron">
          -365 80 669 rmoveto
          -669 155 669 vlineto
          78 -1 rmoveto
          366 callgsubr
          endchar
        </CharString>
        <CharString name="less">
          -15 650 395 rmoveto
          108 vlineto
          -614 -135 rlineto
          -110 vlineto
          614 -141 rlineto
          109 vlineto
          -485 86 rlineto
          endchar
        </CharString>
        <CharString name="lessequal">
          18 672 189 rmoveto
          -623 -86 623 hlineto
          310 vmoveto
          96 vlineto
          -623 -94 rlineto
          -112 vlineto
          623 -97 rlineto
          97 vlineto
          -506 55 rlineto
          endchar
        </CharString>
        <CharString name="logicalnot">
          57 698 400 rmoveto
          -634 -119 539 -144 95 hlineto
          endchar
        </CharString>
        <CharString name="lozenge">
          54 717 313 rmoveto
          -264 309 rlineto
          -150 hlineto
          -255 -309 255 -313 rlineto
          150 hlineto
          100 313 rmoveto
          -175 -218 -165 218 165 215 rlineto
          endchar
        </CharString>
        <CharString name="lslash">
          -390 369 446 rmoveto
          -131 -44 rlineto
          267 -155 -319 vlineto
          -124 -41 rlineto
          -65 vlineto
          124 41 rlineto
          -285 155 337 vlineto
          131 44 rlineto
          endchar
        </CharString>
        <CharString name="m">
          276 638 485 rmoveto
          -35 -21 -15 -29 -8 hvcurveto
          30 -10 -25 14 -39 hhcurveto
          -215 hlineto
          -31 -17 -10 -20 -8 hvcurveto
          30 -155 -485 155 394 vlineto
          23 11 9 25 vhcurveto
          129 -60 callsubr
          -395 154 389 vlineto
          23 10 14 27 vhcurveto
          120 -60 callsubr
          -395 155 182 callsubr
        </CharString>
        <CharString name="macron">
          -65 105 550 296 callgsubr
          endchar
        </CharString>
        <CharString name="minus">
          61 365 callsubr
          endchar
        </CharString>
        <CharString name="multiply">
          -45 605 437 rmoveto
          -70 77 -192 -137 -192 137 -70 -78 173 -123 -170 -121 69 -77 190 135 190 -135 69 77 -170 122 rlineto
          endchar
        </CharString>
        <CharString name="n">
          -61 286 485 10 callsubr
        </CharString>
        <CharString name="nacute">
          -61 591 680 30 callsubr
          -136 -47 10 callsubr
        </CharString>
        <CharString name="ncaron">
          -61 409 532 -16 callsubr
          29 -47 10 callsubr
        </CharString>
        <CharString name="nine">
          -33 262 318 347 callsubr
          183 -43 callsubr
          150 -60 callsubr
          -214 vlineto
          -295 304 rmoveto
          -42 callsubr
          -205 -74 callsubr
          295 -169 hlineto
          -45 callgsubr
          -142 -68 callgsubr
          97 -161 -108 -74 callsubr
          369 -54 callsubr
          464 -57 callgsubr
          endchar
        </CharString>
        <CharString name="notequal">
          -1 647 357 rmoveto
          100 -129 vlineto
          51 64 rlineto
          -90 hlineto
          -52 -64 rlineto
          -363 -100 283 hlineto
          -73 -90 rlineto
          -210 -99 131 hlineto
          -56 -69 rlineto
          91 hlineto
          55 69 rlineto
          362 99 -282 hlineto
          72 90 rlineto
          endchar
        </CharString>
        <CharString name="ntilde">
          -61 217 587 rmoveto
          13 6 8 13 vhcurveto
          -10 callgsubr
          vlineto
          69 -46 10 callsubr
        </CharString>
        <CharString name="numbersign">
          238 561 234 rmoveto
          -213 hlineto
          50 154 rlineto
          214 hlineto
          287 hmoveto
          82 -126 vlineto
          50 152 rlineto
          -134 hlineto
          -50 -152 rlineto
          -214 hlineto
          50 152 rlineto
          -133 hlineto
          -50 -152 rlineto
          -187 -82 160 hlineto
          -51 -154 rlineto
          -163 -82 136 343 callsubr
          213 343 callsubr
          176 82 -149 hlineto
          51 154 rlineto
          endchar
        </CharString>
        <CharString name="o">
          -65 426 90 -47 callsubr
        </CharString>
        <CharString name="oacute">
          -66 570 680 30 callsubr
          25 -442 -47 callsubr
        </CharString>
        <CharString name="ocircumflex">
          -66 324 625 rmoveto
          43 callgsubr
          -175 -152 rlineto
          154 hlineto
          199 -442 -47 callsubr
        </CharString>
        <CharString name="odieresis">
          97 callsubr
          -330 246 286 callsubr
        </CharString>
        <CharString name="oe">
          272 573 278 rmoveto
          117 -43 callsubr
          142 -60 callsubr
          -117 vlineto
          -359 -189 rmoveto
          -24 -8 -6 -24 vhcurveto
          -133 29 callgsubr
          133 hlineto
          24 8 -7 -23 hvcurveto
          158 89 rmoveto
          -63 -15 -15 -22 -7 hvcurveto
          22 -7 -22 15 -65 hhcurveto
          -251 -27 callsubr
          251 hlineto
          64 22 15 22 7 hvcurveto
          -22 7 15 -15 63 hhcurveto
          272 316 callgsubr
          -140 340 callgsubr
          354 142 callgsubr
        </CharString>
        <CharString name="ogonek">
          -65 315 297 callsubr
          -153 -47 -53 hlineto
          160 callsubr
        </CharString>
        <CharString name="ograve">
          -66 394 532 128 callgsubr
          164 -442 -47 callsubr
        </CharString>
        <CharString name="ohungarumlaut">
          97 callsubr
          -125 296 rmoveto
          -143 -159 362 callsubr
          174 159 rlineto
          88 hmoveto
          -148 -159 362 callsubr
          179 159 rlineto
          endchar
        </CharString>
        <CharString name="omacron">
          -66 539 594 272 callsubr
          -113 -446 -47 callsubr
        </CharString>
        <CharString name="one">
          -324 314 3 callgsubr
          -293 -59 127 -563 166 hlineto
          endchar
        </CharString>
        <CharString name="onesuperior">
          -442 210 3 callgsubr
          -189 -42 80 -300 109 hlineto
          endchar
        </CharString>
        <CharString name="ordfeminine">
          -264 180 322 rmoveto
          -19 -3 4 18 hvcurveto
          214 vlineto
          19 3 3 19 vhcurveto
          79 hlineto
          18 8 -6 -17 hvcurveto
          -212 vlineto
          -16 -8 -7 -18 vhcurveto
          26 300 rmoveto
          -21 vlineto
          14 -6 -12 7 -22 hhcurveto
          -140 hlineto
          -38 -18 -18 -38 hvcurveto
          -230 vlineto
          -38 18 -18 38 vhcurveto
          140 hlineto
          22 12 7 14 6 hvcurveto
          -21 110 342 vlineto
          endchar
        </CharString>
        <CharString name="ordmasculine">
          -266 384 572 rmoveto
          34 -16 16 -33 vhcurveto
          -231 hlineto
          -33 -17 -16 -34 hvcurveto
          -242 vlineto
          -34 17 -16 33 vhcurveto
          231 hlineto
          33 16 16 34 hvcurveto
          -104 12 rmoveto
          -16 -3 -4 -17 vhcurveto
          -82 hlineto
          -17 -3 4 16 hvcurveto
          219 vlineto
          16 3 3 17 vhcurveto
          82 hlineto
          17 3 -3 -16 hvcurveto
          endchar
        </CharString>
        <CharString name="oslash">
          -55 437 88 rmoveto
          -27 -5 -5 -26 vhcurveto
          -154 hlineto
          -19 -8 3 11 -3 hvcurveto
          215 246 rlineto
          -217 82 rmoveto
          26 5 5 27 vhcurveto
          154 hlineto
          22 7 -4 -16 2 hvcurveto
          -217 -247 rlineto
          391 352 rmoveto
          -82 hlineto
          -25 -29 rlineto
          -353 75 callgsubr
          -327 vlineto
          -28 7 -20 15 -13 vhcurveto
          -42 -48 rlineto
          82 hlineto
          26 30 rlineto
          346 -54 callsubr
          327 vlineto
          25 -6 20 -12 13 vhcurveto
          endchar
        </CharString>
        <CharString name="otilde">
          -66 213 588 rmoveto
          13 6 8 13 vhcurveto
          -10 callgsubr
          vlineto
          213 -442 -47 callsubr
        </CharString>
        <CharString name="p">
          -55 436 223 callgsubr
          -140 hlineto
          -25 -11 9 23 hvcurveto
          302 vlineto
          24 11 9 25 vhcurveto
          140 -60 callsubr
          -151 90 rmoveto
          -33 -17 -12 -23 -8 hvcurveto
          35 -153 -626 155 171 vlineto
          -20 8 17 -10 31 hhcurveto
          226 332 callgsubr
          endchar
        </CharString>
        <CharString name="paragraph">
          52 441 3 callgsubr
          -301 75 callgsubr
          -248 -74 callsubr
          162 -357 139 hlineto
          107 763 rmoveto
          -763 139 763 vlineto
          endchar
        </CharString>
        <CharString name="parenleft">
          -350 78 126 rmoveto
          -240 116 -105 184 vhcurveto
          39 59 -23 hlineto
          -107 3 -48 91 167 vvcurveto
          296 vlineto
          166 48 92 107 4 vhcurveto
          23 59 -39 hlineto
          -184 -116 -106 -239 hvcurveto
          endchar
        </CharString>
        <CharString name="parenright">
          -350 284 373 rmoveto
          239 -116 106 -184 vhcurveto
          -39 -59 23 hlineto
          107 -4 48 -92 -166 vvcurveto
          -296 vlineto
          -167 -48 -91 -107 -3 vhcurveto
          -23 -59 39 hlineto
          184 116 105 240 hvcurveto
          endchar
        </CharString>
        <CharString name="percent">
          447 1112 69 callsubr
          -39 vhcurveto
          -282 hlineto
          -39 -18 -19 -40 hvcurveto
          -230 vlineto
          -40 18 -19 39 vhcurveto
          282 hlineto
          39 191 callsubr
          endchar
        </CharString>
        <CharString name="period">
          -428 58 hmoveto
          295 callsubr
          endchar
        </CharString>
        <CharString name="periodcentered">
          -406 72 248 rmoveto
          295 callsubr
          endchar
        </CharString>
        <CharString name="perthousand">
          932 1114 69 callsubr
          -40 vhcurveto
          -281 hlineto
          -39 -19 -19 -40 hvcurveto
          -230 vlineto
          -40 19 -19 39 vhcurveto
          281 hlineto
          40 191 callsubr
          1268 -258 rmoveto
          40 -18 20 -39 vhcurveto
          -282 hlineto
          -39 -19 -20 -40 hvcurveto
          -229 vlineto
          -41 19 -19 39 359 callsubr
          41 hvcurveto
          -120 13 225 callgsubr
          endchar
        </CharString>
        <CharString name="pi">
          125 795 485 rmoveto
          -742 -59 104 -333 hlineto
          -45 callgsubr
          -67 -62 174 -54 callsubr
          347 218 -426 154 426 111 vlineto
          endchar
        </CharString>
        <CharString name="plus">
          -18 638 361 rmoveto
          -216 150 -150 -150 -216 -101 216 -150 150 150 216 hlineto
          endchar
        </CharString>
        <CharString name="plusminus">
          0 60 126 rmoveto
          582 80 -582 hlineto
          361 211 rmoveto
          94 -140 -94 -221 -91 221 -80 140 80 221 91 vlineto
          endchar
        </CharString>
        <CharString name="product">
          45 134 3 callgsubr
          -529 -12 callgsubr
          -79 -62 185 -54 callsubr
          484 233 -563 154 622 vlineto
          endchar
        </CharString>
        <CharString name="q">
          -59 272 59 6 callgsubr
          140 hlineto
          25 10 -9 -24 hvcurveto
          -302 vlineto
          -23 -10 -9 -25 vhcurveto
          38 426 rmoveto
          -39 vlineto
          26 -7 -17 13 -35 hhcurveto
          -226 -27 callsubr
          226 hlineto
          31 17 10 20 8 hvcurveto
          -171 155 626 vlineto
          endchar
        </CharString>
        <CharString name="question">
          -106 201 hmoveto
          295 callsubr
          -96 491 rmoveto
          -55 -24 -28 -50 hvcurveto
          -114 156 101 vlineto
          25 4 8 26 vhcurveto
          166 hlineto
          25 4 -8 -25 hvcurveto
          -162 vlineto
          -24 -4 -7 -25 vhcurveto
          -169 hlineto
          13 -132 rlineto
          130 hlineto
          7 68 rlineto
          126 hlineto
          54 25 29 49 hvcurveto
          192 vlineto
          50 -25 28 -54 vhcurveto
          endchar
        </CharString>
        <CharString name="questiondown">
          -77 432 484 rmoveto
          -168 -131 168 hlineto
          19 -299 rmoveto
          -101 vlineto
          -25 -4 -8 -26 vhcurveto
          -165 hlineto
          -26 -4 8 25 hvcurveto
          162 vlineto
          24 4 -91 callsubr
          168 hlineto
          -12 132 rlineto
          -131 hlineto
          -7 -68 rlineto
          -125 hlineto
          -55 -24 -29 -49 hvcurveto
          -192 vlineto
          -50 24 -28 55 vhcurveto
          380 hlineto
          55 24 28 50 hvcurveto
          114 vlineto
          endchar
        </CharString>
        <CharString name="quotedbl">
          -259 56 3 callgsubr
          -240 139 240 vlineto
          63 hmoveto
          -240 140 240 vlineto
          endchar
        </CharString>
        <CharString name="quotedblbase">
          -222 278 -129 279 callsubr
          -220 -270 279 callsubr
          endchar
        </CharString>
        <CharString name="quotedblleft">
          -222 317 callgsubr
          220 269 rmoveto
          -55 hlineto
          -113 -202 rlineto
          -67 168 vlineto
          endchar
        </CharString>
        <CharString name="quotedblright">
          -222 278 353 280 callgsubr
          -220 -269 280 callgsubr
          endchar
        </CharString>
        <CharString name="quoteleft">
          -437 317 callgsubr
          endchar
        </CharString>
        <CharString name="quoteright">
          -437 58 353 280 callgsubr
          endchar
        </CharString>
        <CharString name="quotesinglbase">
          -438 58 -129 279 callsubr
          endchar
        </CharString>
        <CharString name="quotesingle">
          -459 56 3 callgsubr
          -240 142 240 vlineto
          endchar
        </CharString>
        <CharString name="r">
          -299 329 486 242 callgsubr
        </CharString>
        <CharString name="racute">
          -298 496 681 30 callsubr
          -98 234 callgsubr
        </CharString>
        <CharString name="rcaron">
          -298 320 533 -16 callsubr
          61 234 callgsubr
        </CharString>
        <CharString name="registered">
          -73 587 535 rmoveto
          102 -40 58 -124 vhcurveto
          -206 hlineto
          -125 -40 -58 -102 hvcurveto
          -35 vlineto
          -102 40 -57 125 vhcurveto
          206 hlineto
          124 40 57 102 hvcurveto
          -356 -119 rmoveto
          -72 -25 39 75 hvcurveto
          45 vlineto
          75 25 43 72 vhcurveto
          178 hlineto
          72 25 -43 -75 hvcurveto
          -45 vlineto
          -75 -25 -39 -72 vhcurveto
          -186 234 rmoveto
          -190 64 68 25 vlineto
          41 -68 rlineto
          69 hlineto
          -46 69 rlineto
          9 hlineto
          20 8 13 17 hvcurveto
          62 vlineto
          19 -10 10 -20 vhcurveto
          -34 -82 rmoveto
          -7 -2 -3 -8 vhcurveto
          -51 64 51 hlineto
          8 2 -2 -8 hvcurveto
          endchar
        </CharString>
        <CharString name="ring">
          -65 500 608 124 callgsubr
          endchar
        </CharString>
        <CharString name="s">
          -111 391 89 57 callsubr
        </CharString>
        <CharString name="sacute">
          -113 252 532 77 callsubr
          1 -591 57 callsubr
        </CharString>
        <CharString name="scaron">
          -113 230 532 rmoveto
          152 hlineto
          176 151 rlineto
          -155 hlineto
          -97 -93 -97 93 rlineto
          -154 hlineto
          336 -594 57 callsubr
        </CharString>
        <CharString name="section">
          79 612 194 rmoveto
          29 5 27 24 49 vvcurveto
          96 -57 callgsubr
          -215 -68 callgsubr
          90 -43 callsubr
          109 -60 callsubr
          -50 158 61 -57 callgsubr
          -329 75 callgsubr
          -112 vlineto
          -35 20 -14 14 -7 vhcurveto
          -30 -6 -25 -29 -48 vvcurveto
          -91 -74 callsubr
          214 -60 callsubr
          -90 -12 callgsubr
          -109 -68 callgsubr
          50 -158 -61 -74 callsubr
          329 -54 callsubr
          107 vlineto
          35 -21 19 -13 7 vhcurveto
          -134 194 rmoveto
          -31 callgsubr
          -109 -12 callgsubr
          -125 -68 callgsubr
          109 -43 callsubr
          endchar
        </CharString>
        <CharString name="semicolon">
          -436 58 354 rmoveto
          295 callsubr
          -624 vmoveto
          335 callsubr
        </CharString>
        <CharString name="seven">
          -160 536 3 callgsubr
          -507 -59 345 hlineto
          -277 -563 rlineto
          172 hlineto
          267 553 rlineto
          endchar
        </CharString>
        <CharString name="six">
          -36 449 223 callgsubr
          -150 -68 callgsubr
          209 181 vlineto
          -31 callgsubr
          -212 90 rmoveto
          174 -43 callsubr
          142 -60 callsubr
          -103 161 114 -57 callgsubr
          -370 -6 callsubr
          378 -54 callsubr
          200 -57 callgsubr
          endchar
        </CharString>
        <CharString name="slash">
          -256 287 callgsubr
        </CharString>
        <CharString name="space">
          -438 endchar
        </CharString>
        <CharString name="sterling">
          -10 254 90 rmoveto
          32 14 5 41 58 vvcurveto
          68 253 59 -253 202 -43 callsubr
          135 -60 callsubr
          -106 161 117 -57 callgsubr
          -362 75 callgsubr
          -213 -78 -59 78 -76 vlineto
          -66 -15 -47 -57 -8 vhcurveto
          -74 602 90 vlineto
          endchar
        </CharString>
        <CharString name="t">
          -318 364 426 206 callgsubr
        </CharString>
        <CharString name="tcaron">
          -319 258 588 rmoveto
          -155 -103 -78 -59 78 -347 264 callgsubr
          182 62 -75 -68 callgsubr
          333 107 59 -107 vlineto
          59 245 rmoveto
          -178 42 vlineto
          84 120 rlineto
          58 vlineto
          endchar
        </CharString>
        <CharString name="thorn">
          -61 430 100 37 callsubr
          -134 hlineto
          -25 -11 9 23 hvcurveto
          302 vlineto
          23 11 354 callgsubr
          -145 90 rmoveto
          -33 -17 -12 -23 -8 hvcurveto
          210 -153 -810 155 181 vlineto
          -20 8 17 -10 31 hhcurveto
          220 -54 callsubr
          326 -57 callgsubr
          endchar
        </CharString>
        <CharString name="three">
          -33 224 532 rmoveto
          -24 callsubr
          165 -60 callsubr
          -156 -12 callgsubr
          -143 -60 212 callsubr
          -164 -12 callgsubr
          -165 -68 callgsubr
          106 -162 -117 -74 callsubr
          392 -54 callsubr
          175 vlineto
          40 290 callsubr
          162 -57 callgsubr
          -392 75 callgsubr
          -118 162 vlineto
          endchar
        </CharString>
        <CharString name="threesuperior">
          -307 151 563 rmoveto
          14 3 3 14 vhcurveto
          77 hlineto
          14 3 -3 -14 hvcurveto
          -71 vlineto
          -15 -3 -2 -14 vhcurveto
          -80 -43 80 hlineto
          14 3 -3 -14 hvcurveto
          -75 vlineto
          -15 -3 -3 -14 vhcurveto
          -77 hlineto
          -14 -3 3 15 hvcurveto
          48 -99 -65 vlineto
          -29 15 -14 29 vhcurveto
          222 hlineto
          29 14 14 29 hvcurveto
          97 vlineto
          22 -11 11 -19 1 vhcurveto
          19 1 11 13 22 vvcurveto
          89 vlineto
          29 -14 14 -29 vhcurveto
          -222 hlineto
          -29 -15 -14 -29 hvcurveto
          -66 99 vlineto
          endchar
        </CharString>
        <CharString name="tilde">
          -65 230 595 rmoveto
          -10 callgsubr
          56 vlineto
          13 6 8 13 vhcurveto
          endchar
        </CharString>
        <CharString name="trademark">
          255 24 558 rmoveto
          117 -275 118 275 117 64 -352 hlineto
          763 hmoveto
          -113 -206 -111 206 rlineto
          -128 -339 109 224 hlineto
          88 -166 rlineto
          84 hlineto
          90 165 rlineto
          -223 110 339 vlineto
          endchar
        </CharString>
        <CharString name="two">
          -64 215 532 rmoveto
          -24 callsubr
          160 -60 callsubr
          -62 vlineto
          -50 -16 -25 -40 -37 vhcurveto
          -329 -299 rlineto
          -59 550 59 -339 vlineto
          272 247 rlineto
          51 47 12 32 83 vvcurveto
          75 -57 callgsubr
          -388 75 callgsubr
          -133 163 vlineto
          endchar
        </CharString>
        <CharString name="twosuperior">
          -324 145 563 rmoveto
          14 3 3 14 vhcurveto
          71 hlineto
          15 2 -3 -14 hvcurveto
          -28 vlineto
          -28 -8 -21 -22 -18 vhcurveto
          -169 -144 rlineto
          -44 296 44 -172 vlineto
          134 109 rlineto
          28 24 12 28 50 vvcurveto
          44 vlineto
          29 -14 14 -29 vhcurveto
          -217 hlineto
          -29 -14 -14 -29 hvcurveto
          -71 99 vlineto
          endchar
        </CharString>
        <CharString name="u">
          -61 423 485 -13 callgsubr
        </CharString>
        <CharString name="uacute">
          -61 558 680 30 callsubr
          34 -47 -13 callgsubr
        </CharString>
        <CharString name="ucircumflex">
          -61 321 625 rmoveto
          43 callgsubr
          -175 -152 rlineto
          154 hlineto
          199 -47 -13 callgsubr
        </CharString>
        <CharString name="udieresis">
          -50 552 641 175 callgsubr
          -286 109 175 callgsubr
          156 -47 160 callgsubr
        </CharString>
        <CharString name="ugrave">
          -61 406 532 128 callgsubr
          149 -47 -13 callgsubr
        </CharString>
        <CharString name="uhungarumlaut">
          -61 497 533 rmoveto
          179 159 rlineto
          -148 hlineto
          -148 -159 rlineto
          60 159 rmoveto
          -148 hlineto
          -143 -159 362 callsubr
          156 -48 160 callgsubr
        </CharString>
        <CharString name="umacron">
          -61 539 595 272 callsubr
          -116 -52 -13 callgsubr
        </CharString>
        <CharString name="underscore">
          -88 4 -59 rmoveto
          616 59 -616 hlineto
          endchar
        </CharString>
        <CharString name="uni00AD">
          -334 55 253 rmoveto
          268 58 -268 hlineto
          endchar
        </CharString>
        <CharString name="uni00B5">
          -52 431 485 rmoveto
          -394 197 callsubr
          -135 -68 callgsubr
          395 -154 -626 154 141 145 vlineto
          31 18 10 20 8 hvcurveto
          -30 154 485 vlineto
          endchar
        </CharString>
        <CharString name="uni0122">
          -29 265 -251 14 callgsubr
          355 471 rmoveto
          120 -57 callgsubr
          -391 -6 callsubr
          391 -54 callsubr
          241 -283 -59 122 -171 -12 callgsubr
          -164 -68 callgsubr
          442 -43 callsubr
          163 -60 callsubr
          -109 vlineto
          endchar
        </CharString>
        <CharString name="uni0123">
          -69 428 734 rmoveto
          -50 hlineto
          -108 -141 rlineto
          -62 158 vlineto
          -176 -472 5 callsubr
        </CharString>
        <CharString name="uni0136">
          -9 80 3 callgsubr
          -622 158 622 vlineto
          262 hmoveto
          277 callgsubr
          -397 -873 136 callsubr
        </CharString>
        <CharString name="uni0137">
          -79 74 hmoveto
          155 669 -155 hlineto
          169 -920 14 callgsubr
          377 533 267 callgsubr
        </CharString>
        <CharString name="uni013B">
          -153 228 -251 14 callgsubr
          14 107 220 callgsubr
        </CharString>
        <CharString name="uni013C">
          -397 235 hmoveto
          358 callgsubr
          -3 -251 136 callsubr
        </CharString>
        <CharString name="uni0145">
          22 504 131 callgsubr
          -362 -873 136 callsubr
        </CharString>
        <CharString name="uni0146">
          -61 253 -251 14 callgsubr
          33 533 10 callsubr
        </CharString>
        <CharString name="uni0156">
          -8 274 -251 14 callgsubr
          -32 611 rmoveto
          206 -60 callsubr
          -219 -12 callgsubr
          -206 hlineto
          270 -59 rmoveto
          49 -54 callsubr
          241 -57 callgsubr
          -481 -622 162 223 109 hlineto
          134 -223 rlineto
          168 hlineto
          endchar
        </CharString>
        <CharString name="uni0157">
          -298 71 -251 14 callgsubr
          258 534 242 callgsubr
        </CharString>
        <CharString name="uni015E">
          -44 443 90 -63 callsubr
          -191 -504 136 callsubr
        </CharString>
        <CharString name="uni015F">
          -113 391 89 -61 callgsubr
          -171 -432 136 callsubr
        </CharString>
        <CharString name="uni0162">
          -127 210 -251 14 callgsubr
          366 670 173 callsubr
        </CharString>
        <CharString name="uni0163">
          -127 210 -251 14 callgsubr
          366 670 173 callsubr
        </CharString>
        <CharString name="uni0218">
          -44 443 90 -63 callsubr
          -192 -504 136 callsubr
        </CharString>
        <CharString name="uni0219">
          -113 391 89 -61 callgsubr
          -177 -432 136 callsubr
        </CharString>
        <CharString name="uni021A">
          -127 213 -251 14 callgsubr
          363 670 173 callsubr
        </CharString>
        <CharString name="uni021B">
          -319 114 -251 14 callgsubr
          251 474 206 callgsubr
        </CharString>
        <CharString name="uni02C9">
          -159 80 550 rmoveto
          392 58 -392 hlineto
          endchar
        </CharString>
        <CharString name="uni0901">
          -712 -339 685 rmoveto
          399 hlineto
          54 20 27 51 hvcurveto
          89 -140 323 callgsubr
          -204 357 callsubr
          -140 360 callgsubr
          147 123 rmoveto
          103 97 -103 hlineto
          endchar
        </CharString>
        <CharString name="uni0902">
          -712 -268 687 275 callsubr
        </CharString>
        <CharString name="uni0902.aMatraI">
          -712 74 680 275 callsubr
        </CharString>
        <CharString name="uni0903">
          -310 148 420 rmoveto
          158 137 -158 hlineto
          -476 vmoveto
          158 137 -158 hlineto
          endchar
        </CharString>
        <CharString name="uni0905">
          363 1095 3 callgsubr
          -289 -70 callsubr
          122 vlineto
          endchar
        </CharString>
        <CharString name="uni0906">
          723 1455 3 callgsubr
          -649 -70 callsubr
          193 355 callsubr
        </CharString>
        <CharString name="uni0907">
          29 652 97 callgsubr
          109 59 -781 89 callsubr
        </CharString>
        <CharString name="uni0908">
          30 653 97 callgsubr
          109 59 -138 120 -103 callsubr
          89 59 -211 -34 callgsubr
          -134 -476 89 callsubr
        </CharString>
        <CharString name="uni09080902">
          30 604 760 rmoveto
          24 8 9 26 vhcurveto
          118 59 -244 hlineto
          -53 -22 -22 -53 hvcurveto
          -155 -456 -59 506 -78 -330 -15 callsubr
          -66 -105 callgsubr
          311 hlineto
          -55 callsubr
          -64 107 callsubr
          -210 53 -174 -190 174 78 332 -86 callgsubr
          92 -51 callgsubr
          -311 hlineto
          -26 -6 6 26 hvcurveto
          38 363 callsubr
          109 59 -158 hlineto
          65 132 rmoveto
          -94 94 94 vlineto
          endchar
        </CharString>
        <CharString name="uni0909">
          7 739 3 callgsubr
          -759 -59 437 44 callsubr
          201 vlineto
          41 -18 18 -38 1 vhcurveto
          4 vlineto
          38 1 369 callgsubr
          128 vlineto
          17 -4 10 -8 6 vhcurveto
          135 hlineto
          endchar
        </CharString>
        <CharString name="uni090A">
          349 1081 3 callgsubr
          -1100 -59 441 44 callsubr
          203 187 vlineto
          -29 callsubr
          -157 -66 callsubr
          -140 -59 262 -86 callgsubr
          185 -51 callgsubr
          -353 hlineto
          1 -4 -4 0 -4 hhcurveto
          3 vlineto
          38 2 369 callgsubr
          126 vlineto
          17 -4 10 -8 6 vhcurveto
          472 hlineto
          endchar
        </CharString>
        <CharString name="uni090B">
          57 callgsubr
          428 hlineto
          24 7 -5 -26 hvcurveto
          -75 vlineto
          -24 -3 -9 -27 vhcurveto
          -125 hlineto
          -24 -8 5 24 hvcurveto
          47 -164 -58 vlineto
          -49 22 -28 50 vhcurveto
          360 hlineto
          55 23 26 51 hvcurveto
          95 vlineto
          44 -15 11 -27 5 vhcurveto
          4 vlineto
          29 4 13 18 50 vvcurveto
          100 242 callsubr
        </CharString>
        <CharString name="uni090C">
          411 1022 34 rmoveto
          529 121 59 -1163 -59 875 -78 -240 vlineto
          100 callgsubr
          -4 hlineto
          17 callsubr
          -323 -34 callgsubr
          -104 callsubr
          185 -333 -154 hlineto
          -53 -22 -22 -53 hvcurveto
          -121 282 callsubr
          350 59 -232 hlineto
          185 callsubr
          endchar
        </CharString>
        <CharString name="uni090D">
          66 599 685 rmoveto
          -58 callsubr
          90 -159 67 callgsubr
          599 -63 rmoveto
          -818 38 callgsubr
        </CharString>
        <CharString name="uni090E">
          66 798 3 callgsubr
          -105 203 callgsubr
          -546 -59 122 -486 vlineto
          46 callgsubr
        </CharString>
        <CharString name="uni090F">
          66 798 3 callgsubr
          -818 38 callgsubr
        </CharString>
        <CharString name="uni0910">
          66 798 3 callgsubr
          -106 207 callgsubr
          -552 38 callgsubr
        </CharString>
        <CharString name="uni0911">
          717 1269 685 rmoveto
          -58 callsubr
          90 -159 67 callgsubr
          580 -63 rmoveto
          -643 -70 callsubr
          187 355 callsubr
        </CharString>
        <CharString name="uni0912">
          717 1449 3 callgsubr
          -122 203 callgsubr
          -354 -266 -226 4 vlineto
          -77 callsubr
          187 355 callsubr
        </CharString>
        <CharString name="uni0913">
          718 1450 3 callgsubr
          -122 207 callgsubr
          -362 -70 callsubr
          188 355 callsubr
        </CharString>
        <CharString name="uni0914">
          751 1482 3 callgsubr
          -123 hlineto
          -41 211 rlineto
          -120 104 callgsubr
          -348 -70 callsubr
          187 355 callsubr
        </CharString>
        <CharString name="uni0915">
          374 1106 368 callgsubr
          -1126 -59 480 144 callsubr
          -257 hlineto
          -53 -24 -24 -53 hvcurveto
          -253 -69 callgsubr
        </CharString>
        <CharString name="uni0915093C">
          374 125 -105 -52 callsubr
          981 550 rmoveto
          59 -1126 -59 480 144 callsubr
          -257 hlineto
          -53 -24 -24 -53 hvcurveto
          -253 -69 callgsubr
        </CharString>
        <CharString name="uni0915093C094D">
          30 97 -105 -52 callsubr
          561 472 191 callgsubr
          191 59 -837 -59 480 144 callsubr
          -257 hlineto
          -53 -24 -24 -53 hvcurveto
          -96 callsubr
          254 59 hlineto
          endchar
        </CharString>
        <CharString name="uni0915093C094D0915093C">
          1120 97 -105 -52 callsubr
          774 -118 -52 callsubr
          335 158 rmoveto
          -97 callsubr
          -498 hlineto
          -69 callsubr
          580 vlineto
          646 hmoveto
          59 -1872 -59 480 144 callsubr
          -257 hlineto
          -53 -24 -24 -53 hvcurveto
          -96 callsubr
          163 hlineto
          -1 -6 0 -6 -6 vvcurveto
          -253 -69 callgsubr
        </CharString>
        <CharString name="uni0915093C094D0924">
          801 97 -105 -52 callsubr
          1149 472 rmoveto
          -588 hlineto
          -69 callsubr
          620 vlineto
          314 callgsubr
          -1554 -59 480 241 callsubr
          -257 hlineto
          -53 -24 -24 -53 hvcurveto
          -96 callsubr
          152 hlineto
          -28 callgsubr
        </CharString>
        <CharString name="uni0915093C094D092B">
          1147 97 -105 -52 callsubr
          1134 158 -60 callgsubr
          -573 -78 191 callgsubr
          205 -78 vlineto
          1049 78 rmoveto
          59 -1900 -59 480 144 callsubr
          -257 hlineto
          -53 -24 -24 -53 hvcurveto
          -96 callsubr
          171 210 callsubr
          291 hlineto
          14 11 3 6 7 hvcurveto
          -87 -95 callgsubr
        </CharString>
        <CharString name="uni0915093C094D092B093C">
          1147 97 -116 rmoveto
          164 117 -164 hlineto
          754 -106 -52 callsubr
          380 158 -60 callgsubr
          -573 -78 191 callgsubr
          205 -78 vlineto
          1049 78 rmoveto
          59 -1900 -59 480 144 callsubr
          -257 hlineto
          -53 -24 -24 -53 hvcurveto
          -96 callsubr
          171 210 callsubr
          291 hlineto
          14 11 3 6 7 hvcurveto
          -87 -95 callgsubr
        </CharString>
        <CharString name="uni0915093C094D092C">
          847 97 -105 -52 callsubr
          900 413 rmoveto
          248 59 -587 hlineto
          -69 callsubr
          664 -246 vlineto
          313 callgsubr
          -290 -46 50 callsubr
          -1599 -59 480 241 callsubr
          -257 hlineto
          -53 -24 -24 -53 hvcurveto
          -96 callsubr
          153 204 callgsubr
        </CharString>
        <CharString name="uni0915093C094D092E">
          1093 97 -105 -52 callsubr
          1441 472 359 callgsubr
          -343 -394 rmoveto
          -66 callgsubr
          -169 -107 callsubr
          201 hlineto
          59 vmoveto
          -537 hlineto
          -69 callsubr
          569 vlineto
          630 59 rmoveto
          -1845 -59 480 241 callsubr
          -257 hlineto
          -53 -24 -24 -53 hvcurveto
          -96 callsubr
          146 hlineto
          -1 -6 0 -6 -6 vvcurveto
          14 callsubr
        </CharString>
        <CharString name="uni0915093C094D0930">
          376 297 -253 -52 callsubr
          811 698 rmoveto
          59 -1128 -59 481 -383 vlineto
          -26 -8 -8 -26 vhcurveto
          -151 hlineto
          -26 -6 7 25 hvcurveto
          216 vlineto
          25 6 7 26 vhcurveto
          135 59 -257 hlineto
          -53 -24 -24 -53 hvcurveto
          -244 -21 callgsubr
        </CharString>
        <CharString name="uni0915093C094D0930094D">
          29 297 -253 -52 callsubr
          363 620 66 callsubr
        </CharString>
        <CharString name="uni0915094D">
          24 658 485 191 callgsubr
          186 59 -832 -59 480 144 callsubr
          -257 hlineto
          -53 -24 -24 -53 hvcurveto
          -96 callsubr
          242 59 hlineto
          endchar
        </CharString>
        <CharString name="uni0915094D0915">
          1111 1197 171 rmoveto
          -97 callsubr
          -489 hlineto
          -69 callsubr
          571 vlineto
          646 hmoveto
          59 -1863 -59 480 144 callsubr
          -257 hlineto
          -53 -24 -24 -53 hvcurveto
          -96 callsubr
          154 hlineto
          -1 -6 0 -6 -6 vvcurveto
          -253 -69 callgsubr
        </CharString>
        <CharString name="uni0915094D0916">
          1394 1169 320 rmoveto
          280 callsubr
          -340 hlineto
          -69 callsubr
          543 vlineto
          957 59 rmoveto
          -2146 -59 480 241 callsubr
          -257 hlineto
          -53 -24 -24 -53 hvcurveto
          -96 callsubr
          171 -349 hlineto
          284 callgsubr
          506 59 -382 hlineto
          -26 -7 -46 callgsubr
        </CharString>
        <CharString name="uni0915094D091A">
          855 1298 171 rmoveto
          154 callgsubr
          -489 hlineto
          -69 callsubr
          672 297 callgsubr
          -1607 -59 480 241 callsubr
          -257 hlineto
          -53 -24 -24 -53 hvcurveto
          -96 callsubr
          181 hlineto
          327 callgsubr
          361 29 callsubr
        </CharString>
        <CharString name="uni0915094D091C">
          1104 1547 485 rmoveto
          51 callsubr
          -331 vlineto
          -69 callsubr
          921 297 callgsubr
          -1856 -59 480 241 callsubr
          -257 hlineto
          -53 -24 -24 -53 hvcurveto
          -96 callsubr
          168 48 callsubr
        </CharString>
        <CharString name="uni0915094D091F">
          754 1186 485 rmoveto
          -528 hlineto
          -69 callsubr
          560 vlineto
          166 -137 303 callsubr
          -1506 -59 480 144 callsubr
          -257 hlineto
          -53 -24 -24 -53 hvcurveto
          -96 callsubr
          153 hlineto
          -1 -6 0 -6 -6 vvcurveto
          -331 -65 callgsubr
        </CharString>
        <CharString name="uni0915094D0923">
          1103 1204 169 -22 callsubr
          -546 -78 191 callgsubr
          188 -78 vlineto
          1021 137 rmoveto
          -1855 -59 480 241 callsubr
          -257 hlineto
          -53 -24 -24 -53 hvcurveto
          -96 callsubr
          154 210 callsubr
          267 callsubr
        </CharString>
        <CharString name="uni0915094D0924">
          422 1154 368 callgsubr
          -1174 -59 512 -78 -470 -59 82 vlineto
          155 callsubr
          257 59 -135 -102 callsubr
          303 vlineto
          24 5 7 24 1 vhcurveto
          205 214 callgsubr
          392 hlineto
          1 callgsubr
          167 -53 callgsubr
          -303 vlineto
          -25 -6 196 callgsubr
          331 -51 callgsubr
          -291 -37 callsubr
        </CharString>
        <CharString name="uni0915094D0924094D092F">
          1472 1916 174 0 callgsubr
          -2224 -59 480 241 callsubr
          -257 hlineto
          -53 -24 -24 -53 hvcurveto
          -96 callsubr
          157 hlineto
          -1 -6 0 -6 -6 vvcurveto
          -331 vlineto
          -53 24 276 callsubr
          263 59 -620 hlineto
          -69 callsubr
          919 vlineto
          20 callsubr
        </CharString>
        <CharString name="uni0915094D0924094D0930">
          825 1269 289 rmoveto
          -53 hlineto
          -132 137 rlineto
          51 -51 -43 8 -76 hhcurveto
          -256 hlineto
          -69 callsubr
          643 vlineto
          314 callgsubr
          -1577 -59 480 241 callsubr
          -257 hlineto
          -53 -24 -24 -53 hvcurveto
          -96 callsubr
          154 hlineto
          44 38 -6 -41 42 hvcurveto
          125 -128 -259 200 callgsubr
          51 -215 122 callsubr
        </CharString>
        <CharString name="uni0915094D0924094D0935">
          1192 1636 171 rmoveto
          -82 callsubr
          -928 hlineto
          -69 callsubr
          1010 297 callgsubr
          -1945 -59 480 241 callsubr
          -257 hlineto
          -53 -24 -24 -53 hvcurveto
          -96 callsubr
          150 hlineto
          -1 -6 0 -6 -6 vvcurveto
          -331 261 callsubr
          219 hlineto
          -11 callsubr
        </CharString>
        <CharString name="uni0915094D0925">
          1069 1801 622 98 callgsubr
          25 258 callgsubr
          vlineto
          53 -25 -7 callsubr
          -381 -34 callgsubr
          -60 -162 vlineto
          -69 callsubr
          69 59 -715 -59 480 144 callsubr
          -257 hlineto
          -53 -24 -24 -53 hvcurveto
          -96 callsubr
          324 105 hlineto
          -96 callgsubr
          142 127 callsubr
          -343 138 callsubr
          587 -43 callgsubr
        </CharString>
        <CharString name="uni0915094D0926">
          759 1197 485 rmoveto
          -539 hlineto
          -69 callsubr
          571 vlineto
          166 -137 304 callsubr
          -1511 -59 480 144 callsubr
          -257 hlineto
          -53 -24 -24 -53 hvcurveto
          -96 callsubr
          147 hlineto
          -1 -6 0 -6 -6 vvcurveto
          -253 152 callsubr
        </CharString>
        <CharString name="uni0915094D0928">
          1085 1529 485 rmoveto
          -871 hlineto
          -69 callsubr
          903 vlineto
          -328 -394 rmoveto
          -25 31 callgsubr
          -168 -107 callsubr
          201 hlineto
          617 196 rmoveto
          -1838 -59 480 241 callsubr
          -257 hlineto
          -53 -24 -24 -53 hvcurveto
          -96 callsubr
          147 hlineto
          12 callgsubr
        </CharString>
        <CharString name="uni0915094D092A">
          780 1224 -40 callsubr
          -566 -78 191 callgsubr
          198 -78 vlineto
          689 137 rmoveto
          -1533 -59 480 241 callsubr
          -257 hlineto
          -53 -24 -24 -53 hvcurveto
          -96 callsubr
          164 -271 105 callgsubr
        </CharString>
        <CharString name="uni0915094D092A094D0930">
          781 1224 33 callsubr
          -566 -78 191 callgsubr
          198 -78 vlineto
          689 137 rmoveto
          -1533 -59 480 241 callsubr
          -257 hlineto
          -53 -24 -24 -53 hvcurveto
          -96 callsubr
          164 -231 114 callgsubr
        </CharString>
        <CharString name="uni0915094D092B">
          1141 1224 -40 callsubr
          -566 -78 191 callgsubr
          198 -78 vlineto
          1049 78 rmoveto
          59 -1893 -59 480 144 callsubr
          -257 hlineto
          -53 -24 -24 -53 hvcurveto
          -96 callsubr
          164 210 callsubr
          291 hlineto
          14 11 3 6 7 hvcurveto
          -87 -95 callgsubr
        </CharString>
        <CharString name="uni0915094D092E">
          1100 1544 485 359 callgsubr
          -343 -394 rmoveto
          -66 callgsubr
          -169 -107 callsubr
          201 hlineto
          59 vmoveto
          -543 hlineto
          -69 callsubr
          575 vlineto
          630 59 rmoveto
          -1851 -59 480 241 callsubr
          -257 hlineto
          -53 -24 -24 -53 hvcurveto
          -96 callsubr
          152 hlineto
          -1 -6 0 -6 -6 vvcurveto
          14 callsubr
        </CharString>
        <CharString name="uni0915094D092F">
          1002 1446 174 -75 callgsubr
          -1755 -59 480 241 callsubr
          -257 hlineto
          -53 -24 -24 -53 hvcurveto
          -96 callsubr
          149 59 -151 hlineto
          -69 callsubr
          450 vlineto
          -95 callsubr
          123 vlineto
          endchar
        </CharString>
        <CharString name="uni0915094D0930">
          376 1108 368 callgsubr
          -1128 -59 481 -383 vlineto
          -26 -8 -8 -26 vhcurveto
          -151 hlineto
          -26 -6 7 25 hvcurveto
          216 vlineto
          25 6 7 26 vhcurveto
          135 59 -257 hlineto
          -53 -24 -24 -53 hvcurveto
          -244 -21 callgsubr
        </CharString>
        <CharString name="uni0915094D0930.aTrad">
          423 1155 368 callgsubr
          -1175 -59 531 -274 -53 vlineto
          24 callsubr
          51 -215 166 392 hlineto
          1 callgsubr
          149 -53 callgsubr
          -225 -88 callgsubr
          -137 -59 259 15 callgsubr
          -51 callgsubr
          -273 -37 callsubr
        </CharString>
        <CharString name="uni0915094D0930094D">
          29 660 485 66 callsubr
        </CharString>
        <CharString name="uni0915094D0932">
          1135 1578 485 rmoveto
          74 callgsubr
          -552 hlineto
          -69 callsubr
          952 297 callgsubr
          -1887 -59 480 241 callsubr
          -257 hlineto
          -53 -24 -24 -53 hvcurveto
          -96 callsubr
          151 hlineto
          -1 -6 0 -6 -6 vvcurveto
          -331 -61 callsubr
        </CharString>
        <CharString name="uni0915094D0935">
          774 1217 171 rmoveto
          -82 callsubr
          -509 hlineto
          -69 callsubr
          591 297 callgsubr
          -1526 -59 480 241 callsubr
          -257 hlineto
          -53 -24 -24 -53 hvcurveto
          -96 callsubr
          148 hlineto
          -11 callsubr
        </CharString>
        <CharString name="uni0915094D0935094D092F">
          1439 1882 174 -105 callsubr
          -881 -426 rmoveto
          -106 callgsubr
          160 59 -503 hlineto
          -69 callsubr
          886 228 callgsubr
          -2191 -59 480 241 callsubr
          -257 hlineto
          -53 -24 -24 -53 hvcurveto
          -96 callsubr
          142 hlineto
          197 callgsubr
          336 -18 callsubr
          123 vlineto
          endchar
        </CharString>
        <CharString name="uni0915094D0936">
          1120 888 622 263 callsubr
          -60 -153 vlineto
          -69 callsubr
          64 59 -710 -59 480 144 callsubr
          -257 hlineto
          -53 -24 -24 -53 hvcurveto
          -96 callsubr
          317 105 hlineto
          25 7 246 callsubr
          -176 -66 callsubr
          -192 45 -166 -291 hlineto
          -107 callgsubr
          399 -86 callgsubr
          121 -166 -107 -66 callsubr
          -155 hlineto
          -26 -7 -97 callgsubr
          173 314 vlineto
          -58 callsubr
          204 -51 callgsubr
          544 296 callsubr
          123 callsubr
        </CharString>
        <CharString name="uni0915094D0937">
          381 486 393 30 callgsubr
          627 92 rmoveto
          -289 -261 -193 hlineto
          -65 callsubr
          560 -302 123 callsubr
        </CharString>
        <CharString name="uni0915094D0937094D">
          23 285 530 rmoveto
          13 callgsubr
          135 32 callgsubr
          -137 187 callsubr
          -134 hlineto
          -26 -8 6 26 hvcurveto
          632 -91 rmoveto
          59 -286 vlineto
          -65 callsubr
          endchar
        </CharString>
        <CharString name="uni0915094D0937094D092E">
          1103 1547 485 359 callgsubr
          -343 -394 -7 callgsubr
          -718 -33 30 callgsubr
          1349 92 rmoveto
          -1067 -59 436 210 callgsubr
          -47 -183 vlineto
          -65 callsubr
          550 279 callgsubr
          24 24 53 hvcurveto
          271 176 139 callgsubr
          vlineto
          endchar
        </CharString>
        <CharString name="uni0915094D0937094D092E094D">
          738 1209 169 rmoveto
          261 callgsubr
          -723 -33 30 callgsubr
          1109 -45 rmoveto
          -219 78 179 59 -812 -59 466 -78 -314 -34 callgsubr
          -47 -187 vlineto
          -65 callsubr
          554 279 callgsubr
          25 24 53 hvcurveto
          271 219 vlineto
          endchar
        </CharString>
        <CharString name="uni0915094D0937094D092E094D092F">
          1734 2177 174 -105 callsubr
          -973 -394 -7 callgsubr
          -718 -33 30 callgsubr
          1980 92 rmoveto
          -1696 -59 434 210 callgsubr
          -47 -183 vlineto
          -65 callsubr
          550 279 callgsubr
          24 24 53 hvcurveto
          271 170 59 -170 78 436 vlineto
          -95 callsubr
          123 vlineto
          endchar
        </CharString>
        <CharString name="uni0915094D0937094D092F">
          997 1441 174 330 callgsubr
          136 222 vlineto
          -58 callsubr
          148 221 callsubr
          -955 -167 rmoveto
          165 callgsubr
          -134 hlineto
          -26 -8 6 26 hvcurveto
          134 -14 callgsubr
          135 32 callgsubr
          1243 92 rmoveto
          -972 -59 314 hlineto
          -55 callsubr
          -135 -88 callgsubr
          -440 hlineto
          10 6 5 12 21 vvcurveto
          142 324 callsubr
          -367 hlineto
          -53 -24 -23 -53 hvcurveto
          -142 vlineto
          -21 5 -12 10 -6 vhcurveto
          -1 hlineto
          -54 -21 -29 -49 hvcurveto
          -131 -15 callgsubr
          306 141 callgsubr
          225 -167 -51 263 callgsubr
          -181 1 callsubr
          104 -14 callgsubr
          540 -150 254 callgsubr
        </CharString>
        <CharString name="uni0915094D0937094D0935">
          786 486 393 30 callgsubr
          1032 92 rmoveto
          -755 -59 466 104 callsubr
          -47 -188 vlineto
          -65 callsubr
          555 -147 hlineto
          13 callsubr
          300 -43 callgsubr
        </CharString>
        <CharString name="uni0915094D0938">
          1104 1547 339 rmoveto
          -180 hlineto
          -84 callgsubr
          192 hlineto
          -345 -192 231 callgsubr
          635 91 rmoveto
          -1857 -59 480 241 callsubr
          -257 hlineto
          -53 -24 -24 -53 hvcurveto
          -96 callsubr
          148 20 callgsubr
          -166 -123 vlineto
          -25 -7 19 callgsubr
        </CharString>
        <CharString name="uni0915094D0938094D091F">
          1508 1643 321 callsubr
          -185 -31 callsubr
          571 -78 hlineto
          -725 -114 137 callsubr
          891 -105 303 callsubr
          -2260 -59 480 144 callsubr
          -257 hlineto
          -53 -24 -24 -53 hvcurveto
          -96 callsubr
          162 -42 callgsubr
          577 -203 -65 callgsubr
        </CharString>
        <CharString name="uni0915094D0938094D0921">
          1487 1636 321 callsubr
          -177 -31 callsubr
          560 -78 hlineto
          -714 -114 rmoveto
          -66 callgsubr
          -194 137 -1 9 -331 hlineto
          -69 callsubr
          558 vlineto
          -55 callsubr
          881 -105 351 callgsubr
          -2239 -59 480 144 callsubr
          -257 hlineto
          -53 -24 -24 -53 hvcurveto
          -96 callsubr
          163 -42 callgsubr
          580 vlineto
          -19 12 22 -9 32 hhcurveto
          -72 callsubr
        </CharString>
        <CharString name="uni0915094D0938094D0924">
          1556 2001 485 rmoveto
          -358 -34 callgsubr
          -69 -185 -31 callsubr
          632 hlineto
          -786 -192 137 callsubr
          1074 91 rmoveto
          -2309 -59 480 241 callsubr
          -257 hlineto
          -53 -24 -24 -53 hvcurveto
          -96 callsubr
          162 -42 callgsubr
          577 184 callgsubr
        </CharString>
        <CharString name="uni0915094D0938094D092A094D0930">
          1529 1972 33 callsubr
          -591 -224 rmoveto
          -84 callgsubr
          203 -224 hlineto
          -357 32 137 callsubr
          1046 91 rmoveto
          -2281 -59 480 241 callsubr
          -257 hlineto
          -53 -24 -24 -53 hvcurveto
          -96 callsubr
          162 -42 callgsubr
          583 -85 114 callsubr
        </CharString>
        <CharString name="uni0915094D0938094D092A094D0932">
          2265 2708 485 rmoveto
          74 callgsubr
          -323 158 callsubr
          -161 211 callgsubr
          995 vlineto
          -1341 -224 rmoveto
          -84 callgsubr
          196 -224 hlineto
          -349 32 231 callgsubr
          1795 91 rmoveto
          -3017 -59 480 241 callsubr
          -257 hlineto
          -53 -24 -24 -53 hvcurveto
          -96 callsubr
          148 20 callgsubr
          -166 -123 vlineto
          -25 -7 265 callsubr
          282 201 callsubr
          -4 161 callsubr
          185 85 callsubr
        </CharString>
        <CharString name="uni0916">
          650 1382 3 callgsubr
          -1402 -59 445 -243 hlineto
          -25 -6 -7 -26 vhcurveto
          -139 168 -167 -379 64 callgsubr
        </CharString>
        <CharString name="uni0916093C">
          650 450 -183 -52 callsubr
          932 687 rmoveto
          -1402 -59 445 -243 hlineto
          -25 -6 -7 -26 vhcurveto
          -139 168 -167 -379 64 callgsubr
        </CharString>
        <CharString name="uni0916093C094D">
          297 423 -183 -52 callsubr
          -169 294 rmoveto
          258 hlineto
          69 callgsubr
          469 59 -1078 -59 445 -243 -88 callgsubr
          -139 168 364 callgsubr
          506 59 -383 -102 callsubr
          632 87 rmoveto
          193 callgsubr
          154 -39 callgsubr
          -181 -105 callgsubr
          374 58 hlineto
          endchar
        </CharString>
        <CharString name="uni0916093C094D0924">
          1075 150 callsubr
          1384 699 rmoveto
          -1827 -79 callgsubr
          930 -78 -358 353 callsubr
          -9 -26 vhcurveto
          -164 205 callgsubr
          274 201 callsubr
          -46 261 callsubr
          236 -426 229 callsubr
        </CharString>
        <CharString name="uni0916093C094D092E">
          1384 150 callsubr
          1405 562 179 callgsubr
          -2136 -79 callgsubr
          897 -78 -314 353 callsubr
          -9 -26 vhcurveto
          -28 callsubr
          13 11 341 callsubr
          -31 9 24 -15 41 hhcurveto
          220 callsubr
          176 -426 149 callgsubr
        </CharString>
        <CharString name="uni0916093C094D092F">
          1289 150 callsubr
          1309 251 -75 callgsubr
          -2041 -79 callgsubr
          773 vlineto
          -85 callsubr
          -156 198 callgsubr
          -28 callsubr
          13 11 341 callsubr
          -31 9 24 -15 41 hhcurveto
          289 callgsubr
        </CharString>
        <CharString name="uni0916093C094D0930">
          627 887 -253 -52 callsubr
          495 757 rmoveto
          -1402 -59 445 -239 hlineto
          -25 -6 -7 -26 vhcurveto
          -139 164 -167 -379 -4 callsubr
        </CharString>
        <CharString name="uni0916093C094D0930094D">
          124 callsubr
          650 -344 -52 callsubr
          -18 318 136 callgsubr
        </CharString>
        <CharString name="uni0916093C094D0935">
          1061 150 callsubr
          1370 699 rmoveto
          -1813 -79 callgsubr
          916 94 callgsubr
          -177 -107 callsubr
          161 59 -283 74 callsubr
          -208 vlineto
          166 callsubr
          13 11 341 callsubr
          -31 8 25 -15 41 hhcurveto
          148 callsubr
        </CharString>
        <CharString name="uni0916093C094D0936">
          1387 150 callsubr
          -169 306 rmoveto
          258 hlineto
          69 callgsubr
          356 59 -965 -3 callgsubr
        </CharString>
        <CharString name="uni0916093C094D0938">
          1391 150 callsubr
          1411 416 rmoveto
          -180 hlineto
          -84 callgsubr
          192 hlineto
          290 59 rmoveto
          -2144 -79 callgsubr
          867 vlineto
          -44 callgsubr
          -7 -26 vhcurveto
          -194 137 -167 -264 198 callgsubr
          -28 callsubr
          12 10 1 2 8 hvcurveto
          -46 vlineto
          -33 callsubr
        </CharString>
        <CharString name="uni0916094D">
          306 254 229 rmoveto
          258 hlineto
          69 callgsubr
          478 59 -1087 -59 445 -243 -88 callgsubr
          -139 168 364 callgsubr
          506 59 -383 -102 callsubr
          632 87 rmoveto
          193 callgsubr
          154 -39 callgsubr
          -181 -105 callgsubr
          382 58 hlineto
          endchar
        </CharString>
        <CharString name="uni0916094D0916">
          1663 2395 3 callgsubr
          -2415 -79 callgsubr
          849 -243 -88 callgsubr
          -139 168 -167 -244 198 callgsubr
          -180 -25 callsubr
          290 201 callsubr
          -46 vlineto
          -33 callgsubr
        </CharString>
        <CharString name="uni0916094D0924">
          1075 1807 3 callgsubr
          -1827 -79 callgsubr
          930 -78 -358 177 callsubr
          -196 86 callgsubr
          -163 205 callgsubr
          273 201 callsubr
          -46 vlineto
          -53 25 276 callsubr
          236 -426 122 callsubr
        </CharString>
        <CharString name="uni0916094D0928">
          1388 1502 169 -7 callgsubr
          618 196 rmoveto
          -2140 -79 callgsubr
          1241 310 callgsubr
          -187 -9 callgsubr
          297 hlineto
          13 11 341 callsubr
          -31 9 24 -15 41 hhcurveto
          342 callgsubr
          -426 167 94 callsubr
        </CharString>
        <CharString name="uni0916094D092E">
          1383 1828 485 359 callgsubr
          -343 -394 rmoveto
          -66 callgsubr
          -169 -107 callsubr
          201 hlineto
          630 196 rmoveto
          -2135 -79 callgsubr
          896 -78 -313 353 callsubr
          -9 -26 vhcurveto
          -28 callsubr
          13 11 341 callsubr
          -31 9 24 -15 41 hhcurveto
          19 callsubr
        </CharString>
        <CharString name="uni0916094D092F">
          1289 1732 174 -75 callgsubr
          -2041 -79 callgsubr
          773 vlineto
          -85 callsubr
          -156 198 callgsubr
          -28 callsubr
          13 11 341 callsubr
          -31 9 24 -15 41 hhcurveto
          289 callgsubr
        </CharString>
        <CharString name="uni0916094D0930">
          650 1382 3 callgsubr
          -1402 -59 445 -239 hlineto
          -25 -6 -7 -26 vhcurveto
          -139 164 -167 -379 -4 callsubr
        </CharString>
        <CharString name="uni0916094D0930094D">
          124 callsubr
          632 92 136 callgsubr
        </CharString>
        <CharString name="uni0916094D0935">
          1061 1793 3 callgsubr
          -1813 -79 callgsubr
          915 -392 vlineto
          -26 -8 -8 -26 vhcurveto
          -177 67 callsubr
          -208 vlineto
          166 callsubr
          13 11 341 callsubr
          -31 8 24 307 callgsubr
          123 vlineto
          endchar
        </CharString>
        <CharString name="uni0916094D0936">
          1387 254 229 rmoveto
          258 hlineto
          69 callgsubr
          347 59 -956 -3 callgsubr
        </CharString>
        <CharString name="uni0917">
          382 252 137 rmoveto
          -68 callsubr
          657 485 rmoveto
          -1134 -59 -71 callsubr
          170 -563 332 callsubr
        </CharString>
        <CharString name="uni0917093C">
          382 274 -105 -52 callsubr
          -22 124 rmoveto
          -68 callsubr
          657 485 rmoveto
          -1134 -59 -71 callsubr
          170 -563 332 callsubr
        </CharString>
        <CharString name="uni0917093C094D">
          15 272 -105 -52 callsubr
          -20 124 rmoveto
          -68 callsubr
          290 485 rmoveto
          -767 -59 509 273 callgsubr
          227 callgsubr
          -193 -36 callsubr
          92 vlineto
          endchar
        </CharString>
        <CharString name="uni0917093C094D0930">
          335 627 -275 -52 callsubr
          -381 321 62 callgsubr
        </CharString>
        <CharString name="uni0917093C094D0930094D">
          103 callgsubr
          293 -14 rmoveto
          -60 91 -413 -344 rlineto
          196 hlineto
          -39 -190 275 callsubr
        </CharString>
        <CharString name="uni0917094D">
          13 252 137 rmoveto
          -68 callsubr
          288 485 rmoveto
          -765 -59 217 callsubr
          vlineto
          endchar
        </CharString>
        <CharString name="uni0917094D0917">
          1115 985 137 rmoveto
          -68 callsubr
          -938 hmoveto
          -68 callsubr
          1390 485 rmoveto
          -1867 -59 -71 callsubr
          567 273 callgsubr
          -15 callsubr
          -194 -36 callsubr
          170 -563 332 callsubr
        </CharString>
        <CharString name="uni0917094D0918">
          898 1341 171 rmoveto
          -38 callgsubr
          -292 65 callgsubr
          326 hlineto
          -1089 -426 rmoveto
          -68 callsubr
          1173 485 rmoveto
          -1650 -59 -71 callsubr
          174 vlineto
          25 callsubr
          416 -43 callgsubr
        </CharString>
        <CharString name="uni0917094D091C">
          1097 252 137 rmoveto
          -68 callsubr
          1372 485 rmoveto
          -1849 -59 -71 callsubr
          885 -78 -329 -316 vlineto
          -59 callsubr
          167 129 callsubr
          vlineto
          endchar
        </CharString>
        <CharString name="uni0917094D0923">
          1110 1211 169 -22 callsubr
          -959 -426 rmoveto
          -68 callsubr
          1385 485 rmoveto
          -1862 -59 -71 callsubr
          166 218 callgsubr
        </CharString>
        <CharString name="uni0917094D0926">
          758 252 137 rmoveto
          -68 callsubr
          906 289 304 callsubr
          -1511 -59 509 273 callgsubr
          -15 callsubr
          -194 -36 callsubr
          542 -78 -314 vlineto
          -53 -24 -24 -53 hvcurveto
          -253 152 callsubr
        </CharString>
        <CharString name="uni0917094D0927">
          1047 100 callsubr
          1799 hmoveto
          -288 151 callgsubr
          -426 hlineto
          -80 callgsubr
          148 callgsubr
        </CharString>
        <CharString name="uni0917094D0927094D092F">
          1635 34 callgsubr
          2098 -448 182 callgsubr
          -945 -59 286 hlineto
          -81 callsubr
          -256 -198 198 callgsubr
          -403 76 callsubr
          529 -58 callgsubr
          289 callsubr
        </CharString>
        <CharString name="uni0917094D0927094D0935">
          1424 34 callgsubr
          2176 hmoveto
          -730 -59 442 169 callsubr
          -408 76 callsubr
          534 215 callgsubr
        </CharString>
        <CharString name="uni0917094D0928">
          1075 1191 169 rmoveto
          -25 31 callgsubr
          -168 -107 callsubr
          201 hlineto
          -939 -289 rmoveto
          -68 callsubr
          1351 485 rmoveto
          -1828 -59 -71 callsubr
          864 -78 -646 -67 callsubr
          167 129 callsubr
          vlineto
          endchar
        </CharString>
        <CharString name="uni0917094D0928094D092F">
          1737 1212 169 -7 callgsubr
          332 hmoveto
          59 -650 -26 callgsubr
          353 callgsubr
          808 -252 -105 callsubr
          -1929 -426 rmoveto
          -68 callsubr
          2013 485 rmoveto
          -2490 -59 -71 callsubr
          1156 vlineto
          -95 callsubr
          123 vlineto
          endchar
        </CharString>
        <CharString name="uni0917094D092C">
          841 1003 249 callsubr
          -998 hmoveto
          -68 callsubr
          1116 485 rmoveto
          -1593 -59 -71 callsubr
          629 -246 vlineto
          149 callsubr
        </CharString>
        <CharString name="uni0917094D092D">
          1122 100 callsubr
          1245 -454 31 callsubr
          629 310 rmoveto
          -288 -251 -175 174 hlineto
          -40 callgsubr
          175 -312 149 callgsubr
        </CharString>
        <CharString name="uni0917094D092D094D092F">
          1712 34 callgsubr
          2175 -448 137 callgsubr
          -29 vhcurveto
          -389 -102 callsubr
          143 211 vlineto
          -58 callsubr
          141 221 callsubr
          -950 316 callsubr
          112 322 callgsubr
          1239 310 rmoveto
          -961 -59 302 hlineto
          -55 callsubr
          -128 -88 callgsubr
          -413 174 hlineto
          -32 callsubr
          -399 -34 callgsubr
          -101 167 87 196 callsubr
          -160 -313 162 callgsubr
          157 -157 vlineto
          52 callsubr
        </CharString>
        <CharString name="uni0917094D092E">
          1105 1550 485 359 callgsubr
          -343 -394 rmoveto
          -66 callgsubr
          -169 -107 callsubr
          201 hlineto
          -955 -289 rmoveto
          -68 callsubr
          1380 485 rmoveto
          -1857 -59 -71 callsubr
          552 -78 -313 vlineto
          -53 -24 -24 -53 hvcurveto
          14 callsubr
        </CharString>
        <CharString name="uni0917094D092F">
          987 1430 174 -105 callsubr
          -1178 -426 rmoveto
          -68 callsubr
          1262 485 rmoveto
          -1739 -59 -71 callsubr
          405 vlineto
          -95 callsubr
          123 vlineto
          endchar
        </CharString>
        <CharString name="uni0917094D0930">
          371 246 164 62 callgsubr
        </CharString>
        <CharString name="uni0917094D0930094D">
          103 callgsubr
          233 77 rmoveto
          -413 -344 rlineto
          196 hlineto
          277 253 rlineto
          endchar
        </CharString>
        <CharString name="uni0917094D0930094D092F">
          996 1439 174 -105 callsubr
          -1193 -399 72 callsubr
          1277 458 rmoveto
          -1748 50 callgsubr
          381 425 vlineto
          -85 callsubr
          -171 hlineto
          -338 -282 rlineto
          196 hlineto
          184 168 rlineto
          -3 10 11 -2 14 hhcurveto
          -18 callgsubr
          123 vlineto
          endchar
        </CharString>
        <CharString name="uni0917094D0932">
          1147 252 137 rmoveto
          -68 callsubr
          1422 485 rmoveto
          -1899 -59 -71 callsubr
          935 -78 -240 vlineto
          100 callgsubr
          -4 hlineto
          17 callsubr
          -323 -34 callgsubr
          -331 -61 callsubr
        </CharString>
        <CharString name="uni0917094D0935">
          777 252 137 rmoveto
          -68 callsubr
          1052 485 rmoveto
          -1529 -59 -71 callsubr
          565 -392 vlineto
          -26 -8 -8 -26 vhcurveto
          -177 67 callsubr
          92 callsubr
        </CharString>
        <CharString name="uni0917094D0938">
          1117 1560 339 rmoveto
          -180 hlineto
          -84 callgsubr
          192 hlineto
          -1308 -426 rmoveto
          -68 callsubr
          1393 485 rmoveto
          -1870 -59 -71 callsubr
          527 vlineto
          -100 callgsubr
          572 -280 167 563 123 vlineto
          endchar
        </CharString>
        <CharString name="uni0918">
          170 613 171 rmoveto
          -38 callgsubr
          -292 65 callgsubr
          326 hlineto
          130 callgsubr
          -922 368 callsubr
          25 callsubr
          416 -43 callgsubr
        </CharString>
        <CharString name="uni0918094D">
          -214 287 234 callsubr
          118 -26 callsubr
          161 59 -161 17 callgsubr
          121 -26 callsubr
          287 59 -594 368 callsubr
          25 callsubr
          488 59 hlineto
          endchar
        </CharString>
        <CharString name="uni0918094D0928">
          885 1328 485 rmoveto
          309 callsubr
          -283 65 callgsubr
          1041 hlineto
          -328 -394 rmoveto
          -25 31 callgsubr
          -168 -107 callsubr
          201 hlineto
          617 196 rmoveto
          -1637 368 callsubr
          25 callsubr
          409 102 callgsubr
        </CharString>
        <CharString name="uni0918094D092E">
          893 1338 485 359 callgsubr
          -343 -394 rmoveto
          -66 callgsubr
          -169 -107 callsubr
          201 hlineto
          -390 -256 rmoveto
          -1 198 callgsubr
          -283 65 callgsubr
          708 210 callgsubr
          1020 214 rmoveto
          -1645 368 callsubr
          25 callsubr
          409 264 callsubr
          176 336 callsubr
          vlineto
          endchar
        </CharString>
        <CharString name="uni0918094D092F">
          798 1241 174 -105 callsubr
          -954 -426 7 callgsubr
          118 -26 callsubr
          161 59 -161 17 callgsubr
          121 -26 callsubr
          584 34 callsubr
          960 485 rmoveto
          -1550 368 callsubr
          25 callsubr
          409 -18 callsubr
          123 vlineto
          endchar
        </CharString>
        <CharString name="uni0918094D0930">
          173 616 186 rmoveto
          -38 callgsubr
          -292 -102 callsubr
          103 -26 callsubr
          161 59 -161 17 callgsubr
          121 -26 callsubr
          326 hlineto
          130 callgsubr
          -925 -59 124 324 callgsubr
          -120 vlineto
          275 callgsubr
          263 hlineto
          -165 -163 rlineto
          181 hlineto
          169 174 rlineto
          -104 -78 callsubr
        </CharString>
        <CharString name="uni0918094D0930094D">
          -194 91 410 rmoveto
          275 callgsubr
          260 hlineto
          -165 -163 rlineto
          184 hlineto
          173 178 rlineto
          40 44 -370 -102 callsubr
          103 -26 callsubr
          161 59 -161 17 callgsubr
          121 -26 callsubr
          248 59 -558 -59 124 324 callgsubr
          endchar
        </CharString>
        <CharString name="uni0919">
          141 691 301 51 callgsubr
        </CharString>
        <CharString name="uni0919094D">
          141 276 -61 68 callgsubr
          247 362 51 callgsubr
        </CharString>
        <CharString name="uni0919094D0930">
          142 692 301 rmoveto
          115 99 -115 hlineto
          -712 222 rmoveto
          -59 472 -78 -294 -15 callsubr
          -82 213 callgsubr
          285 32 callgsubr
          -116 vlineto
          -26 -7 81 callsubr
          66 -166 -80 -105 callgsubr
          69 58 callgsubr
          57 86 callsubr
          144 vlineto
          53 -25 -7 callsubr
          -285 325 callsubr
          54 -14 callgsubr
          339 137 255 59 hlineto
          endchar
        </CharString>
        <CharString name="uni091A">
          133 865 3 callgsubr
          -885 -59 596 -392 hlineto
          -26 -8 -8 -26 vhcurveto
          -237 hlineto
          -6 callgsubr
          361 -93 callsubr
          -23 callgsubr
          vlineto
          endchar
        </CharString>
        <CharString name="uni091A094D">
          -245 542 3 callgsubr
          -562 -59 562 hlineto
          -237 -426 rmoveto
          -6 callgsubr
          429 59 hlineto
          endchar
        </CharString>
        <CharString name="uni091A094D091A">
          611 1343 3 callgsubr
          -1363 -59 1065 -392 349 callsubr
          -236 hlineto
          -26 -7 -97 callgsubr
          225 141 callsubr
          -394 -59 88 hlineto
          164 callsubr
          -223 86 callgsubr
          -236 -102 callsubr
          225 vlineto
          24 6 7 23 1 vhcurveto
          118 59 -398 311 callgsubr
          362 28 callsubr
          360 -93 callsubr
          167 563 131 vlineto
          endchar
        </CharString>
        <CharString name="uni091A094D091B">
          832 1122 485 rmoveto
          -96 -74 callgsubr
          338 hlineto
          443 hmoveto
          59 -1585 -59 617 vlineto
          16 callgsubr
          -76 292 callgsubr
          -245 hlineto
          -6 callgsubr
          371 hlineto
          12 10 341 callsubr
          -5 93 callgsubr
          53 -24 24 -53 vhcurveto
          -101 78 hlineto
          endchar
        </CharString>
        <CharString name="uni091A094D091B094D0935">
          828 1135 41 callgsubr
          -1579 -59 606 vlineto
          16 callgsubr
          -76 86 callgsubr
          -235 hlineto
          -6 callgsubr
          361 hlineto
          12 11 1 3 8 hvcurveto
          -39 6 24 -18 46 hhcurveto
          146 callgsubr
        </CharString>
</ttFont>
